<?xml version="1.0" encoding="UTF-8"?>
<svg width="200px" height="147px" viewBox="0 0 200 147" version="1.1" xmlns="http://www.w3.org/2000/svg" xmlns:xlink="http://www.w3.org/1999/xlink">
    <!-- Generator: Sketch 42 (36781) - http://www.bohemiancoding.com/sketch -->
    <title>Logo</title>
    <desc>Created with Sketch.</desc>
    <defs>
        <filter x="-50%" y="-50%" width="200%" height="200%" filterUnits="objectBoundingBox" id="filter-1">
            <feOffset dx="0" dy="2" in="SourceAlpha" result="shadowOffsetOuter1"></feOffset>
            <feGaussianBlur stdDeviation="2" in="shadowOffsetOuter1" result="shadowBlurOuter1"></feGaussianBlur>
            <feColorMatrix values="0 0 0 0 0   0 0 0 0 0   0 0 0 0 0  0 0 0 0.5 0" type="matrix" in="shadowBlurOuter1" result="shadowMatrixOuter1"></feColorMatrix>
            <feMerge>
                <feMergeNode in="shadowMatrixOuter1"></feMergeNode>
                <feMergeNode in="SourceGraphic"></feMergeNode>
            </feMerge>
        </filter>
        <text id="text-2" font-family="NanumPen, Nanum Pen Script" font-size="44" font-weight="normal" letter-spacing="0.0227586217" fill="#FFFFFF">
            <tspan x="19.104069" y="128">Silent Shield</tspan>
        </text>
        <filter x="-50%" y="-50%" width="200%" height="200%" filterUnits="objectBoundingBox" id="filter-3">
            <feOffset dx="0" dy="2" in="SourceAlpha" result="shadowOffsetOuter1"></feOffset>
            <feGaussianBlur stdDeviation="2" in="shadowOffsetOuter1" result="shadowBlurOuter1"></feGaussianBlur>
            <feColorMatrix values="0 0 0 0 0   0 0 0 0 0   0 0 0 0 0  0 0 0 0.5 0" type="matrix" in="shadowBlurOuter1"></feColorMatrix>
        </filter>
    </defs>
    <g id="Page-1" stroke="none" stroke-width="1" fill="none" fill-rule="evenodd">
        <g id="Artboard" transform="translate(-3.000000, -2.000000)">
            <g id="Logo" transform="translate(-11.000000, 5.000000)">
                <g id="Logo-Copy" filter="url(#filter-1)">
                    <path d="M108.86488,40 L108.86488,137.489168 C108.86488,137.489168 70.7498959,139.819237 68.1676145,109.802983 C67.282147,99.5103726 70.1212278,98.3691956 71.6256223,85.6292163 C73.1300168,72.889237 68.1676145,42.5257961 68.1676145,42.5257961 L108.86488,40 Z" id="Path-4-Copy-2" fill="#B82322"></path>
                    <path d="M154.86488,40 L154.86488,137.489168 C154.86488,137.489168 116.749896,139.819237 114.167614,109.802983 C113.282147,99.5103726 116.121228,98.3691956 117.625622,85.6292163 C119.130017,72.889237 114.167614,42.5257961 114.167614,42.5257961 L154.86488,40 Z" id="Path-4-Copy-3" fill="#56AAC3" transform="translate(134.432440, 88.765625) scale(-1, 1) translate(-134.432440, -88.765625) "></path>
                    <path d="M158.270337,47.9894138 C164.656709,47.7286798 169.750748,42.6844412 169.750748,36.5 C169.750748,30.1487254 164.378165,25 157.750748,25 C155.77953,25 153.919323,25.4554918 152.278478,26.2626394 C152.585951,25.0683189 152.750748,23.8058103 152.750748,22.5 C152.750748,15.0441559 147.378165,9 140.750748,9 C137.586558,9 134.708406,10.3777552 132.564432,12.6291072 C131.42786,5.47140591 125.228261,0 117.750748,0 C112.231125,0 107.407818,2.98128436 104.80325,7.42143034 C101.724384,4.69049569 97.4613068,3 92.750748,3 C84.6527842,3 77.8772777,7.99598194 76.1672225,14.6853042 C74.2191871,14.1073977 72.0853882,14.0763561 69.9966938,14.7149341 C64.3380141,16.4449661 61.153216,22.4347003 62.8832479,28.0933799 C63.4955954,30.0962782 64.6416055,31.7892444 66.1177074,33.0640381 L64.4968417,33.4384766 C64.4968417,33.4384766 56.547623,35.6484375 58.235123,41.4453125 C59.922623,47.2421875 73.6179355,44.0996094 73.6179355,44.0996094 C73.6179355,44.0996094 87.8650058,38.5400391 93.3347323,44.9697266 C94.0443327,45.8038649 94.6096084,46.5226388 95.0560637,47.1419424 C92.5929239,47.7370959 90.750748,50.1338589 90.750748,53 C90.750748,56.3137085 93.2131818,59 96.250748,59 C99.2883141,59 101.750748,56.3137085 101.750748,53 C101.750748,50.3978698 100.232321,48.182628 98.109338,47.3512261 C99.448933,45.8582628 101.298061,44.5034364 103.531998,44.6513672 C108.299224,44.9670519 124.590078,45.3221057 128.616871,60.0550309 C128.332365,60.0186594 128.043392,60 127.750748,60 C123.33247,60 119.750748,64.2532949 119.750748,69.5 C119.750748,74.7467051 123.33247,79 127.750748,79 C132.169026,79 135.750748,74.7467051 135.750748,69.5 C135.750748,65.7722592 133.9427,62.5459905 131.311172,60.9903684 C131.30731,59.3218048 131.875678,56.6845703 135.507584,56.6845703 C140.389977,56.6845703 158.096093,55.2790499 158.270337,47.9894138 Z" id="Combined-Shape-Copy-22" stroke="#FFFFFF" stroke-width="2" fill="#FFFFFF"></path>
                    <g id="Silent-Shield-Copy-4" stroke="#FFFFFF">
                        <use fill="#FFFFFF" fill-opacity="1" stroke-opacity="1" filter="url(#filter-3)" xlink:href="#text-2"></use>
                        <use fill="#FFFFFF" fill-opacity="1" stroke-opacity="1" xlink:href="#text-2"></use>
                        <use xlink:href="#text-2"></use>
                    </g>
                </g>
            </g>
        </g>
    </g>
</svg>