<svg xmlns="http://www.w3.org/2000/svg" viewBox="0 0 200.82 200.82"><defs><style>.cls-1{fill:none;stroke:#fff;stroke-miterlimit:10;stroke-width:14px;}.cls-2{fill:#fff;}</style></defs><title>ins-twitter</title><g id="图层_2" data-name="图层 2"><g id="图层_1-2" data-name="图层 1"><rect class="cls-1" x="7" y="7" width="186.82" height="186.82" rx="93.41" ry="93.41" transform="translate(2.41 -2.36) rotate(1.36)"/><path class="cls-2" d="M152.08,67.27a37.56,37.56,0,0,1-8.7,9.48A4.69,4.69,0,0,0,141.3,81a63.84,63.84,0,0,1-7.89,30.73,61.19,61.19,0,0,1-18,20.82c-13.1,9.46-27.84,12.86-43.78,11.23a58.8,58.8,0,0,1-26.4-9.35,44.52,44.52,0,0,0,31.57-9.14,24.24,24.24,0,0,1-12.35-4.67,21.37,21.37,0,0,1-7.69-10.91H66l.07-.47A22.28,22.28,0,0,1,51.79,98.49,21.06,21.06,0,0,1,49,87.5a20.36,20.36,0,0,0,9.24,2.43,22.73,22.73,0,0,1-8.57-13.42,21.58,21.58,0,0,1,2.49-15.73c12,13.92,26.89,21.71,45.33,23,0-.64,0-1.1-.11-1.54a22,22,0,0,1,14.82-24.4c8.31-2.63,15.73-.86,22.2,4.91a2,2,0,0,0,2.27.57c3.52-1.33,7.05-2.61,10.57-3.93.57-.21,1.11-.52,2-.93a22,22,0,0,1-8.6,11.5l.1.43c1.83-.41,3.68-.75,5.49-1.24S149.89,68,152.08,67.27Z"/></g></g></svg>