<?xml version="1.0" encoding="UTF-8"?>
<svg width="28px" height="27px" viewBox="0 0 28 27" version="1.1" xmlns="http://www.w3.org/2000/svg" xmlns:xlink="http://www.w3.org/1999/xlink">
    <!-- Generator: Sketch 42 (36781) - http://www.bohemiancoding.com/sketch -->
    <title>icon-shopcart</title>
    <desc>Created with Sketch.</desc>
    <defs></defs>
    <g id="Page-1" stroke="none" stroke-width="1" fill="none" fill-rule="evenodd">
        <g id="beer-dropdown" transform="translate(-214.000000, -715.000000)" stroke="#FFFFFF">
            <g id="icon-shopcart" transform="translate(214.000000, 716.000000)">
                <g id="shopcart">
                    <path d="M7.00961538,4.7660411 C7.00961538,4.7660411 12.0054663,5.89411837 17.0009413,5.87826087 C21.9964164,5.86240336 26.9922673,4.7026087 26.9922673,4.7026087 L25.6579989,14.5590285 C25.6579989,14.5590285 23.4967654,15.1433998 18.6923077,15.2834783 C13.88785,15.4235567 9.01101802,15.0443869 9.01101802,15.0443869" id="Path-16" stroke-linecap="round" stroke-linejoin="round"></path>
                    <path d="M0.236734244,0.303671875 C0.236734244,0.303671875 5.82023973,-1.2287517 6.11458881,3.78700068 C6.40893789,8.80275306 8.99732736,17.286909 8.99732736,17.286909 C8.99732736,17.286909 9.22550495,18.4548115 11.4225699,18.0989012 C13.6196348,17.7429908 24.9201296,18.1878787 24.9201296,18.1878787" id="Path-17" stroke-linecap="round"></path>
                    <path d="M13.0459187,20.0310489 C11.7554576,20.355703 9.75031474,20.0310489 10.8153415,23.5580055 C11.8803683,27.084962 16.6566877,23.5580055 15.4884185,22.3823533 C14.3201492,21.2067011 14.3363797,19.7063949 13.0459187,20.0310489 Z" id="Path-18"></path>
                    <path d="M22.3920725,20.0310489 C21.1016114,20.355703 19.0964686,20.0310489 20.1614954,23.5580055 C21.2265222,27.084962 26.0028415,23.5580055 24.8345723,22.3823533 C23.6663031,21.2067011 23.6825336,19.7063949 22.3920725,20.0310489 Z" id="Path-18-Copy" transform="translate(22.438910, 22.535655) scale(-1, 1) rotate(25.000000) translate(-22.438910, -22.535655) "></path>
                    <path d="M1.16826923,7.05391304 C1.16826923,7.05391304 9.34615385,9.40521739 10.5144231,8.22956522" id="Path-19" stroke-linecap="round"></path>
                    <path d="M1.18608067,10.3152902 C1.18608067,10.3152902 10.5322345,12.2433598 11.7005037,11.0677076" id="Path-19-Copy" stroke-linecap="round" transform="translate(6.443292, 10.881468) rotate(-10.000000) translate(-6.443292, -10.881468) "></path>
                </g>
            </g>
        </g>
    </g>
</svg>