<svg xmlns="http://www.w3.org/2000/svg" viewBox="0 0 200.82 200.82"><defs><style>.cls-1{fill:none;stroke:#fff;stroke-miterlimit:10;stroke-width:14px;}.cls-2{fill:#fff;}</style></defs><title>icon-youtube</title><g id="图层_2" data-name="图层 2"><g id="图层_1-2" data-name="图层 1"><rect class="cls-1" x="7" y="7" width="186.82" height="186.82" rx="93.41" ry="93.41"/><path class="cls-2" d="M99.53,64.15c6.06,0,12.11,0,18.17,0q7.24.07,14.48.37a81.13,81.13,0,0,1,8.63.72c4,.59,6.37,3.32,7.83,6.77A45.28,45.28,0,0,1,152,89.21c.07,5.49.32,11,.31,16.46a70.14,70.14,0,0,1-2.18,19.13c-1,3.48-2.38,6.93-5.54,9a17.3,17.3,0,0,1-5.14,1.85,16.49,16.49,0,0,1-3.57.38c-4.11.17-8.22.37-12.33.43-5.75.07-11.5,0-17.25,0s-11.53.3-17.3.3q-8.07,0-16.14-.37c-4.24-.2-8.48-.58-12.7-1.06-4.49-.51-6.8-3.75-8.3-7.52a44,44,0,0,1-3-15.46c-.14-6.75-.51-13.52-.25-20.26.24-6.12.5-12.34,2.85-18.16,1.29-3.22,2.68-6.46,6.16-7.92a15.63,15.63,0,0,1,4.89-1.17c3.93-.26,7.88-.31,11.83-.4q12.6-.29,25.2-.54ZM120,100.42,89.82,80.91v38.87Z"/></g></g></svg>