<svg xmlns="http://www.w3.org/2000/svg" viewBox="0 0 201 201.05"><defs><style>.cls-1{fill:#fff;}</style></defs><title>icon-goole</title><g id="图层_2" data-name="图层 2"><g id="图层_1-2" data-name="图层 1"><path class="cls-1" d="M100.4,201C45.08,201-.1,155.85,0,100.62.1,44.92,44.88,0,100.32,0a100.52,100.52,0,1,1,.09,201Zm.07-14.25a86.3,86.3,0,0,0,86.35-86.31C186.75,52.75,148,14,100.47,14.14,52.64,14.33,14,52.94,14.14,100.53A86.34,86.34,0,0,0,100.47,186.8Z"/><path class="cls-1" d="M75.84,111c-.31-2.42-.57-4.89-1-7.33-.07-.37-1-.71-1.54-.85a53.65,53.65,0,0,1-5.66-1.29c-8.16-3-13.53-8.72-15.1-17.35-1.62-8.85,1.93-15.87,8.86-21.25a28.69,28.69,0,0,1,18.07-6.24c8.94,0,17.89,0,26.83,0a4.56,4.56,0,0,1,1.92.34c2,1,2.29,2.84.48,4.26-2.64,2.07-5.1,4.5-8.85,5.06.37.67.66,1.23,1,1.78,5.66,10,3.68,20.79-5.13,28.14-1.36,1.14-2.71,2.3-4,3.55-1.73,1.72-1.78,3.39-.07,5.09a56.69,56.69,0,0,0,6.49,6c14.33,10.34,12.83,30.47-3,38.43-7.61,3.84-15.69,4.54-24,3.6-6.13-.69-12-2.2-17.22-5.67-6.1-4-9-10-7.63-16.1,1.19-5.4,4.33-9.57,8.58-12.92,5.56-4.38,12.09-6.15,19-6.83.44,0,.88-.08,1.32-.14A4,4,0,0,0,75.84,111Zm3.44,32.86a14.89,14.89,0,0,0,2.82-.18,49.18,49.18,0,0,0,8.08-2.35c4.81-2.16,8.25-10.09,3-16a20.11,20.11,0,0,0-27.78-2.05c-5.75,4.64-5.75,11.92,0,16.57A18.8,18.8,0,0,0,79.28,143.85ZM89.61,84l-.41-.17c-.13-1-.24-2.09-.41-3.13-.9-5.59-3.18-10.36-8.13-13.52-5.33-3.4-10.87-1.44-12.84,4.59a18.31,18.31,0,0,0,.62,12.7c1.73,4.43,4.31,8.12,8.84,10.1,3.63,1.59,7.53.73,9.34-2.57C88,89.51,88.64,86.66,89.61,84Z"/><path class="cls-1" d="M125.62,95.71c.05-1,.14-1.89.14-2.77,0-4.17,0-8.33,0-12.5,0-2.27.74-3,3-3.05,1.11,0,2.22,0,3.33,0,2.21.09,3,.87,3,3.09,0,4.39,0,8.78,0,13.17,0,.6,0,1.21,0,2.06h2c4.28,0,8.56,0,12.83,0,2.73,0,3.45.77,3.48,3.48,0,1,0,2,0,3-.05,2.12-.71,2.82-2.8,2.84-4.5,0-9,0-13.5,0h-2c0,1.47,0,2.84,0,4.2,0,3.67,0,7.33,0,11,0,2.54-.72,3.23-3.28,3.37a28.75,28.75,0,0,1-3.17,0c-2.12-.12-2.87-.91-2.89-3,0-4.5,0-9,0-13.5,0-.59,0-1.19,0-2h-7c-2.78,0-5.55,0-8.33,0-2.44,0-2.95-.51-3.08-2.88,0-.89,0-1.78,0-2.66,0-3.14.12-3.64,3.94-3.78,4.16-.15,8.33,0,12.5,0Z"/></g></g></svg>