<?xml version="1.0" encoding="UTF-8"?>
<svg width="375px" height="32px" viewBox="0 0 375 32" version="1.1" xmlns="http://www.w3.org/2000/svg" xmlns:xlink="http://www.w3.org/1999/xlink">
    <!-- Generator: Sketch 42 (36781) - http://www.bohemiancoding.com/sketch -->
    <title>scottishline</title>
    <desc>Created with Sketch.</desc>
    <defs></defs>
    <g id="Page-1" stroke="none" stroke-width="1" fill="none" fill-rule="evenodd">
        <g id="beer-dropdown" transform="translate(0.000000, -73.000000)">
            <g id="scottishline" transform="translate(0.000000, 73.000000)">
                <g id="Group-2">
                    <g id="Group-5" transform="translate(1.000000, 0.000000)">
                        <g id="Group-4">
                            <polyline id="Rectangle" fill-opacity="0.800000012" fill="#56AAC3" points="185.978521 3.89182708 185.978521 7.1619354 139.837563 7.1619354 139.837563 3.89182708"></polyline>
                            <polyline id="Rectangle-Copy-6" fill-opacity="0.800000012" fill="#56AAC3" points="185.978521 18.3348055 185.978521 21.6049138 139.837563 21.6049138 139.837563 18.3348055"></polyline>
                            <polyline id="Rectangle-Copy-3" fill-opacity="0.800000012" fill="#56AAC3" points="185.978521 7.97946248 185.978521 11.2495708 139.837563 11.2495708 139.837563 7.97946248"></polyline>
                            <polyline id="Rectangle-Copy-7" fill-opacity="0.800000012" fill="#56AAC3" points="185.978521 22.4224409 185.978521 25.6925492 139.837563 25.6925492 139.837563 22.4224409"></polyline>
                            <polyline id="Rectangle-Copy" fill-opacity="0.599999964" fill="#B82322" points="180.95424 2.29194437 180.95424 30.5298939 175.473206 30.5298939 175.473206 2.29194437"></polyline>
                            <polyline id="Rectangle-Copy-4" fill-opacity="0.599999964" fill="#B82322" points="156.74634 2.29194437 156.74634 30.5298939 151.265305 30.5298939 151.265305 2.29194437"></polyline>
                            <polyline id="Rectangle-Copy-2" fill-opacity="0.599999964" fill="#B82322" points="174.5597 2.29194437 174.5597 30.5298939 169.078666 30.5298939 169.078666 2.29194437"></polyline>
                            <polyline id="Rectangle-Copy-5" fill-opacity="0.599999964" fill="#B82322" points="150.3518 2.29194437 150.3518 30.5298939 144.870766 30.5298939 144.870766 2.29194437"></polyline>
                            <polyline id="Rectangle-Copy" fill-opacity="0.599999964" fill="#FFFFFF" points="177.743739 2.27809778 177.743739 30.5160473 177.112248 30.5160473 177.112248 2.27809778"></polyline>
                            <polyline id="Rectangle-Copy-8" fill-opacity="0.599999964" fill="#FFFFFF" points="172.719458 2.27809778 172.719458 30.5160473 172.087967 30.5160473 172.087967 2.27809778"></polyline>
                            <polyline id="Rectangle-Copy" fill-opacity="0.599999964" fill="#FFFFFF" points="185.958298 6.17190172 139.81734 6.17190172 139.81734 5.53877815 185.958298 5.53877815"></polyline>
                            <polyline id="Rectangle-Copy-9" fill-opacity="0.599999964" fill="#FFFFFF" points="185.958298 20.6148801 139.81734 20.6148801 139.81734 19.9817566 185.958298 19.9817566"></polyline>
                            <polyline id="Rectangle-Copy-9" fill-opacity="0.599999964" fill="#FFFFFF" points="185.958298 24.4300065 139.81734 24.4300065 139.81734 23.7968829 185.958298 23.7968829"></polyline>
                            <polyline id="Rectangle-Copy-8" fill-opacity="0.599999964" fill="#FFFFFF" points="185.958298 9.98702809 139.81734 9.98702809 139.81734 9.35390452 185.958298 9.35390452"></polyline>
                            <polyline id="Rectangle-Copy-8" fill="#45474B" points="162.491697 29.1156695 162.491697 0.877719978 163.123188 0.877719978 163.123188 29.1156695"></polyline>
                            <polyline id="Rectangle-Copy-8" fill="#45474B" points="185.958298 15.4372086 139.81734 15.4372086 139.81734 14.8040851 185.958298 14.8040851"></polyline>
                            <polyline id="Rectangle-Copy" fill-opacity="0.599999964" fill="#FFFFFF" points="153.535839 2.27809778 153.535839 30.5160473 152.904348 30.5160473 152.904348 2.27809778"></polyline>
                            <polyline id="Rectangle-Copy-8" fill-opacity="0.599999964" fill="#FFFFFF" points="148.511557 2.27809778 148.511557 30.5160473 147.880067 30.5160473 147.880067 2.27809778"></polyline>
                            <polyline id="Rectangle" fill-opacity="0.800000012" fill="#56AAC3" points="139.389732 3.89182708 139.389732 7.1619354 93.2487736 7.1619354 93.2487736 3.89182708"></polyline>
                            <polyline id="Rectangle-Copy-6" fill-opacity="0.800000012" fill="#56AAC3" points="139.389732 18.3348055 139.389732 21.6049138 93.2487736 21.6049138 93.2487736 18.3348055"></polyline>
                            <polyline id="Rectangle-Copy-3" fill-opacity="0.800000012" fill="#56AAC3" points="139.389732 7.97946248 139.389732 11.2495708 93.2487736 11.2495708 93.2487736 7.97946248"></polyline>
                            <polyline id="Rectangle-Copy-7" fill-opacity="0.800000012" fill="#56AAC3" points="139.389732 22.4224409 139.389732 25.6925492 93.2487736 25.6925492 93.2487736 22.4224409"></polyline>
                            <polyline id="Rectangle-Copy" fill-opacity="0.599999964" fill="#B82322" points="134.36545 2.29194437 134.36545 30.5298939 128.884416 30.5298939 128.884416 2.29194437"></polyline>
                            <polyline id="Rectangle-Copy-4" fill-opacity="0.599999964" fill="#B82322" points="110.15755 2.29194437 110.15755 30.5298939 104.676516 30.5298939 104.676516 2.29194437"></polyline>
                            <polyline id="Rectangle-Copy-2" fill-opacity="0.599999964" fill="#B82322" points="127.970911 2.29194437 127.970911 30.5298939 122.489876 30.5298939 122.489876 2.29194437"></polyline>
                            <polyline id="Rectangle-Copy-5" fill-opacity="0.599999964" fill="#B82322" points="103.76301 2.29194437 103.76301 30.5298939 98.2819758 30.5298939 98.2819758 2.29194437"></polyline>
                            <polyline id="Rectangle-Copy" fill-opacity="0.599999964" fill="#FFFFFF" points="131.154949 2.27809778 131.154949 30.5160473 130.523459 30.5160473 130.523459 2.27809778"></polyline>
                            <polyline id="Rectangle-Copy-8" fill-opacity="0.599999964" fill="#FFFFFF" points="126.130668 2.27809778 126.130668 30.5160473 125.499177 30.5160473 125.499177 2.27809778"></polyline>
                            <polyline id="Rectangle-Copy" fill-opacity="0.599999964" fill="#FFFFFF" points="139.369508 6.17190172 93.2285499 6.17190172 93.2285499 5.53877815 139.369508 5.53877815"></polyline>
                            <polyline id="Rectangle-Copy-9" fill-opacity="0.599999964" fill="#FFFFFF" points="139.369508 20.6148801 93.2285499 20.6148801 93.2285499 19.9817566 139.369508 19.9817566"></polyline>
                            <polyline id="Rectangle-Copy-9" fill-opacity="0.599999964" fill="#FFFFFF" points="139.369508 24.4300065 93.2285499 24.4300065 93.2285499 23.7968829 139.369508 23.7968829"></polyline>
                            <polyline id="Rectangle-Copy-8" fill-opacity="0.599999964" fill="#FFFFFF" points="139.369508 9.98702809 93.2285499 9.98702809 93.2285499 9.35390452 139.369508 9.35390452"></polyline>
                            <polyline id="Rectangle-Copy-8" fill="#45474B" points="115.902907 29.1156695 115.902907 0.877719978 116.534398 0.877719978 116.534398 29.1156695"></polyline>
                            <polyline id="Rectangle-Copy-8" fill="#45474B" points="139.369508 15.4372086 93.2285499 15.4372086 93.2285499 14.8040851 139.369508 14.8040851"></polyline>
                            <polyline id="Rectangle-Copy" fill-opacity="0.599999964" fill="#FFFFFF" points="106.947049 2.27809778 106.947049 30.5160473 106.315558 30.5160473 106.315558 2.27809778"></polyline>
                            <polyline id="Rectangle-Copy-8" fill-opacity="0.599999964" fill="#FFFFFF" points="101.922768 2.27809778 101.922768 30.5160473 101.291277 30.5160473 101.291277 2.27809778"></polyline>
                            <polyline id="Rectangle" fill-opacity="0.800000012" fill="#56AAC3" points="92.8009417 3.89182708 92.8009417 7.1619354 46.6599837 7.1619354 46.6599837 3.89182708"></polyline>
                            <polyline id="Rectangle-Copy-6" fill-opacity="0.800000012" fill="#56AAC3" points="92.8009417 18.3348055 92.8009417 21.6049138 46.6599837 21.6049138 46.6599837 18.3348055"></polyline>
                            <polyline id="Rectangle-Copy-3" fill-opacity="0.800000012" fill="#56AAC3" points="92.8009417 7.97946248 92.8009417 11.2495708 46.6599837 11.2495708 46.6599837 7.97946248"></polyline>
                            <polyline id="Rectangle-Copy-7" fill-opacity="0.800000012" fill="#56AAC3" points="92.8009417 22.4224409 92.8009417 25.6925492 46.6599837 25.6925492 46.6599837 22.4224409"></polyline>
                            <polyline id="Rectangle-Copy" fill-opacity="0.599999964" fill="#B82322" points="87.7766604 2.29194437 87.7766604 30.5298939 82.2956263 30.5298939 82.2956263 2.29194437"></polyline>
                            <polyline id="Rectangle-Copy-4" fill-opacity="0.599999964" fill="#B82322" points="63.5687598 2.29194437 63.5687598 30.5298939 58.0877257 30.5298939 58.0877257 2.29194437"></polyline>
                            <polyline id="Rectangle-Copy-2" fill-opacity="0.599999964" fill="#B82322" points="81.3821206 2.29194437 81.3821206 30.5298939 75.9010865 30.5298939 75.9010865 2.29194437"></polyline>
                            <polyline id="Rectangle-Copy-5" fill-opacity="0.599999964" fill="#B82322" points="57.17422 2.29194437 57.17422 30.5298939 51.6931859 30.5298939 51.6931859 2.29194437"></polyline>
                            <polyline id="Rectangle-Copy" fill-opacity="0.599999964" fill="#FFFFFF" points="84.5661596 2.27809778 84.5661596 30.5160473 83.9346687 30.5160473 83.9346687 2.27809778"></polyline>
                            <polyline id="Rectangle-Copy-8" fill-opacity="0.599999964" fill="#FFFFFF" points="79.5418784 2.27809778 79.5418784 30.5160473 78.9103875 30.5160473 78.9103875 2.27809778"></polyline>
                            <polyline id="Rectangle-Copy" fill-opacity="0.599999964" fill="#FFFFFF" points="92.780718 6.17190172 46.63976 6.17190172 46.63976 5.53877815 92.780718 5.53877815"></polyline>
                            <polyline id="Rectangle-Copy-9" fill-opacity="0.599999964" fill="#FFFFFF" points="92.780718 20.6148801 46.63976 20.6148801 46.63976 19.9817566 92.780718 19.9817566"></polyline>
                            <polyline id="Rectangle-Copy-9" fill-opacity="0.599999964" fill="#FFFFFF" points="92.780718 24.4300065 46.63976 24.4300065 46.63976 23.7968829 92.780718 23.7968829"></polyline>
                            <polyline id="Rectangle-Copy-8" fill-opacity="0.599999964" fill="#FFFFFF" points="92.780718 9.98702809 46.63976 9.98702809 46.63976 9.35390452 92.780718 9.35390452"></polyline>
                            <polyline id="Rectangle-Copy-8" fill="#45474B" points="69.3141173 29.1156695 69.3141173 0.877719978 69.9456082 0.877719978 69.9456082 29.1156695"></polyline>
                            <polyline id="Rectangle-Copy-8" fill="#45474B" points="92.780718 15.4372086 46.63976 15.4372086 46.63976 14.8040851 92.780718 14.8040851"></polyline>
                            <polyline id="Rectangle-Copy" fill-opacity="0.599999964" fill="#FFFFFF" points="60.358259 2.27809778 60.358259 30.5160473 59.7267681 30.5160473 59.7267681 2.27809778"></polyline>
                            <polyline id="Rectangle-Copy-8" fill-opacity="0.599999964" fill="#FFFFFF" points="55.3339777 2.27809778 55.3339777 30.5160473 54.7024869 30.5160473 54.7024869 2.27809778"></polyline>
                            <polyline id="Rectangle" fill-opacity="0.800000012" fill="#56AAC3" points="46.2121518 3.89182708 46.2121518 7.1619354 0.0711938199 7.1619354 0.0711938199 3.89182708"></polyline>
                            <polyline id="Rectangle-Copy-6" fill-opacity="0.800000012" fill="#56AAC3" points="46.2121518 18.3348055 46.2121518 21.6049138 0.0711938199 21.6049138 0.0711938199 18.3348055"></polyline>
                            <polyline id="Rectangle-Copy-3" fill-opacity="0.800000012" fill="#56AAC3" points="46.2121518 7.97946248 46.2121518 11.2495708 0.0711938199 11.2495708 0.0711938199 7.97946248"></polyline>
                            <polyline id="Rectangle-Copy-7" fill-opacity="0.800000012" fill="#56AAC3" points="46.2121518 22.4224409 46.2121518 25.6925492 0.0711938199 25.6925492 0.0711938199 22.4224409"></polyline>
                            <polyline id="Rectangle-Copy" fill-opacity="0.599999964" fill="#B82322" points="41.1878705 2.29194437 41.1878705 30.5298939 35.7068364 30.5298939 35.7068364 2.29194437"></polyline>
                            <polyline id="Rectangle-Copy-4" fill-opacity="0.599999964" fill="#B82322" points="16.9799699 2.29194437 16.9799699 30.5298939 11.4989358 30.5298939 11.4989358 2.29194437"></polyline>
                            <polyline id="Rectangle-Copy-2" fill-opacity="0.599999964" fill="#B82322" points="34.7933308 2.29194437 34.7933308 30.5298939 29.3122967 30.5298939 29.3122967 2.29194437"></polyline>
                            <polyline id="Rectangle-Copy-5" fill-opacity="0.599999964" fill="#B82322" points="10.5854301 2.29194437 10.5854301 30.5298939 5.10439603 30.5298939 5.10439603 2.29194437"></polyline>
                            <polyline id="Rectangle-Copy" fill-opacity="0.599999964" fill="#FFFFFF" points="37.9773697 2.27809778 37.9773697 30.5160473 37.3458789 30.5160473 37.3458789 2.27809778"></polyline>
                            <polyline id="Rectangle-Copy-8" fill-opacity="0.599999964" fill="#FFFFFF" points="32.9530885 2.27809778 32.9530885 30.5160473 32.3215976 30.5160473 32.3215976 2.27809778"></polyline>
                            <polyline id="Rectangle-Copy" fill-opacity="0.599999964" fill="#FFFFFF" points="46.1919282 6.17190172 0.0509701707 6.17190172 0.0509701707 5.53877815 46.1919282 5.53877815"></polyline>
                            <polyline id="Rectangle-Copy-9" fill-opacity="0.599999964" fill="#FFFFFF" points="46.1919282 20.6148801 0.0509701707 20.6148801 0.0509701707 19.9817566 46.1919282 19.9817566"></polyline>
                            <polyline id="Rectangle-Copy-9" fill-opacity="0.599999964" fill="#FFFFFF" points="46.1919282 24.4300065 0.0509701707 24.4300065 0.0509701707 23.7968829 46.1919282 23.7968829"></polyline>
                            <polyline id="Rectangle-Copy-8" fill-opacity="0.599999964" fill="#FFFFFF" points="46.1919282 9.98702809 0.0509701707 9.98702809 0.0509701707 9.35390452 46.1919282 9.35390452"></polyline>
                            <polyline id="Rectangle-Copy-8" fill="#45474B" points="22.7253274 29.1156695 22.7253274 0.877719978 23.3568183 0.877719978 23.3568183 29.1156695"></polyline>
                            <polyline id="Rectangle-Copy-8" fill="#45474B" points="46.1919282 15.4372086 0.0509701707 15.4372086 0.0509701707 14.8040851 46.1919282 14.8040851"></polyline>
                            <polyline id="Rectangle-Copy" fill-opacity="0.599999964" fill="#FFFFFF" points="13.7694691 2.27809778 13.7694691 30.5160473 13.1379782 30.5160473 13.1379782 2.27809778"></polyline>
                            <polyline id="Rectangle-Copy-8" fill-opacity="0.599999964" fill="#FFFFFF" points="8.74518785 2.27809778 8.74518785 30.5160473 8.11369698 30.5160473 8.11369698 2.27809778"></polyline>
                        </g>
                        <g id="Group-4-Copy" transform="translate(187.500000, 0.000000)">
                            <polyline id="Rectangle" fill-opacity="0.800000012" fill="#56AAC3" points="185.978521 3.89182708 185.978521 7.1619354 139.837563 7.1619354 139.837563 3.89182708"></polyline>
                            <polyline id="Rectangle-Copy-6" fill-opacity="0.800000012" fill="#56AAC3" points="185.978521 18.3348055 185.978521 21.6049138 139.837563 21.6049138 139.837563 18.3348055"></polyline>
                            <polyline id="Rectangle-Copy-3" fill-opacity="0.800000012" fill="#56AAC3" points="185.978521 7.97946248 185.978521 11.2495708 139.837563 11.2495708 139.837563 7.97946248"></polyline>
                            <polyline id="Rectangle-Copy-7" fill-opacity="0.800000012" fill="#56AAC3" points="185.978521 22.4224409 185.978521 25.6925492 139.837563 25.6925492 139.837563 22.4224409"></polyline>
                            <polyline id="Rectangle-Copy" fill-opacity="0.599999964" fill="#B82322" points="180.95424 2.29194437 180.95424 30.5298939 175.473206 30.5298939 175.473206 2.29194437"></polyline>
                            <polyline id="Rectangle-Copy-4" fill-opacity="0.599999964" fill="#B82322" points="156.74634 2.29194437 156.74634 30.5298939 151.265305 30.5298939 151.265305 2.29194437"></polyline>
                            <polyline id="Rectangle-Copy-2" fill-opacity="0.599999964" fill="#B82322" points="174.5597 2.29194437 174.5597 30.5298939 169.078666 30.5298939 169.078666 2.29194437"></polyline>
                            <polyline id="Rectangle-Copy-5" fill-opacity="0.599999964" fill="#B82322" points="150.3518 2.29194437 150.3518 30.5298939 144.870766 30.5298939 144.870766 2.29194437"></polyline>
                            <polyline id="Rectangle-Copy" fill-opacity="0.599999964" fill="#FFFFFF" points="177.743739 2.27809778 177.743739 30.5160473 177.112248 30.5160473 177.112248 2.27809778"></polyline>
                            <polyline id="Rectangle-Copy-8" fill-opacity="0.599999964" fill="#FFFFFF" points="172.719458 2.27809778 172.719458 30.5160473 172.087967 30.5160473 172.087967 2.27809778"></polyline>
                            <polyline id="Rectangle-Copy" fill-opacity="0.599999964" fill="#FFFFFF" points="185.958298 6.17190172 139.81734 6.17190172 139.81734 5.53877815 185.958298 5.53877815"></polyline>
                            <polyline id="Rectangle-Copy-9" fill-opacity="0.599999964" fill="#FFFFFF" points="185.958298 20.6148801 139.81734 20.6148801 139.81734 19.9817566 185.958298 19.9817566"></polyline>
                            <polyline id="Rectangle-Copy-9" fill-opacity="0.599999964" fill="#FFFFFF" points="185.958298 24.4300065 139.81734 24.4300065 139.81734 23.7968829 185.958298 23.7968829"></polyline>
                            <polyline id="Rectangle-Copy-8" fill-opacity="0.599999964" fill="#FFFFFF" points="185.958298 9.98702809 139.81734 9.98702809 139.81734 9.35390452 185.958298 9.35390452"></polyline>
                            <polyline id="Rectangle-Copy-8" fill="#45474B" points="162.491697 29.1156695 162.491697 0.877719978 163.123188 0.877719978 163.123188 29.1156695"></polyline>
                            <polyline id="Rectangle-Copy-8" fill="#45474B" points="185.958298 15.4372086 139.81734 15.4372086 139.81734 14.8040851 185.958298 14.8040851"></polyline>
                            <polyline id="Rectangle-Copy" fill-opacity="0.599999964" fill="#FFFFFF" points="153.535839 2.27809778 153.535839 30.5160473 152.904348 30.5160473 152.904348 2.27809778"></polyline>
                            <polyline id="Rectangle-Copy-8" fill-opacity="0.599999964" fill="#FFFFFF" points="148.511557 2.27809778 148.511557 30.5160473 147.880067 30.5160473 147.880067 2.27809778"></polyline>
                            <polyline id="Rectangle" fill-opacity="0.800000012" fill="#56AAC3" points="139.389732 3.89182708 139.389732 7.1619354 93.2487736 7.1619354 93.2487736 3.89182708"></polyline>
                            <polyline id="Rectangle-Copy-6" fill-opacity="0.800000012" fill="#56AAC3" points="139.389732 18.3348055 139.389732 21.6049138 93.2487736 21.6049138 93.2487736 18.3348055"></polyline>
                            <polyline id="Rectangle-Copy-3" fill-opacity="0.800000012" fill="#56AAC3" points="139.389732 7.97946248 139.389732 11.2495708 93.2487736 11.2495708 93.2487736 7.97946248"></polyline>
                            <polyline id="Rectangle-Copy-7" fill-opacity="0.800000012" fill="#56AAC3" points="139.389732 22.4224409 139.389732 25.6925492 93.2487736 25.6925492 93.2487736 22.4224409"></polyline>
                            <polyline id="Rectangle-Copy" fill-opacity="0.599999964" fill="#B82322" points="134.36545 2.29194437 134.36545 30.5298939 128.884416 30.5298939 128.884416 2.29194437"></polyline>
                            <polyline id="Rectangle-Copy-4" fill-opacity="0.599999964" fill="#B82322" points="110.15755 2.29194437 110.15755 30.5298939 104.676516 30.5298939 104.676516 2.29194437"></polyline>
                            <polyline id="Rectangle-Copy-2" fill-opacity="0.599999964" fill="#B82322" points="127.970911 2.29194437 127.970911 30.5298939 122.489876 30.5298939 122.489876 2.29194437"></polyline>
                            <polyline id="Rectangle-Copy-5" fill-opacity="0.599999964" fill="#B82322" points="103.76301 2.29194437 103.76301 30.5298939 98.2819758 30.5298939 98.2819758 2.29194437"></polyline>
                            <polyline id="Rectangle-Copy" fill-opacity="0.599999964" fill="#FFFFFF" points="131.154949 2.27809778 131.154949 30.5160473 130.523459 30.5160473 130.523459 2.27809778"></polyline>
                            <polyline id="Rectangle-Copy-8" fill-opacity="0.599999964" fill="#FFFFFF" points="126.130668 2.27809778 126.130668 30.5160473 125.499177 30.5160473 125.499177 2.27809778"></polyline>
                            <polyline id="Rectangle-Copy" fill-opacity="0.599999964" fill="#FFFFFF" points="139.369508 6.17190172 93.2285499 6.17190172 93.2285499 5.53877815 139.369508 5.53877815"></polyline>
                            <polyline id="Rectangle-Copy-9" fill-opacity="0.599999964" fill="#FFFFFF" points="139.369508 20.6148801 93.2285499 20.6148801 93.2285499 19.9817566 139.369508 19.9817566"></polyline>
                            <polyline id="Rectangle-Copy-9" fill-opacity="0.599999964" fill="#FFFFFF" points="139.369508 24.4300065 93.2285499 24.4300065 93.2285499 23.7968829 139.369508 23.7968829"></polyline>
                            <polyline id="Rectangle-Copy-8" fill-opacity="0.599999964" fill="#FFFFFF" points="139.369508 9.98702809 93.2285499 9.98702809 93.2285499 9.35390452 139.369508 9.35390452"></polyline>
                            <polyline id="Rectangle-Copy-8" fill="#45474B" points="115.902907 29.1156695 115.902907 0.877719978 116.534398 0.877719978 116.534398 29.1156695"></polyline>
                            <polyline id="Rectangle-Copy-8" fill="#45474B" points="139.369508 15.4372086 93.2285499 15.4372086 93.2285499 14.8040851 139.369508 14.8040851"></polyline>
                            <polyline id="Rectangle-Copy" fill-opacity="0.599999964" fill="#FFFFFF" points="106.947049 2.27809778 106.947049 30.5160473 106.315558 30.5160473 106.315558 2.27809778"></polyline>
                            <polyline id="Rectangle-Copy-8" fill-opacity="0.599999964" fill="#FFFFFF" points="101.922768 2.27809778 101.922768 30.5160473 101.291277 30.5160473 101.291277 2.27809778"></polyline>
                            <polyline id="Rectangle" fill-opacity="0.800000012" fill="#56AAC3" points="92.8009417 3.89182708 92.8009417 7.1619354 46.6599837 7.1619354 46.6599837 3.89182708"></polyline>
                            <polyline id="Rectangle-Copy-6" fill-opacity="0.800000012" fill="#56AAC3" points="92.8009417 18.3348055 92.8009417 21.6049138 46.6599837 21.6049138 46.6599837 18.3348055"></polyline>
                            <polyline id="Rectangle-Copy-3" fill-opacity="0.800000012" fill="#56AAC3" points="92.8009417 7.97946248 92.8009417 11.2495708 46.6599837 11.2495708 46.6599837 7.97946248"></polyline>
                            <polyline id="Rectangle-Copy-7" fill-opacity="0.800000012" fill="#56AAC3" points="92.8009417 22.4224409 92.8009417 25.6925492 46.6599837 25.6925492 46.6599837 22.4224409"></polyline>
                            <polyline id="Rectangle-Copy" fill-opacity="0.599999964" fill="#B82322" points="87.7766604 2.29194437 87.7766604 30.5298939 82.2956263 30.5298939 82.2956263 2.29194437"></polyline>
                            <polyline id="Rectangle-Copy-4" fill-opacity="0.599999964" fill="#B82322" points="63.5687598 2.29194437 63.5687598 30.5298939 58.0877257 30.5298939 58.0877257 2.29194437"></polyline>
                            <polyline id="Rectangle-Copy-2" fill-opacity="0.599999964" fill="#B82322" points="81.3821206 2.29194437 81.3821206 30.5298939 75.9010865 30.5298939 75.9010865 2.29194437"></polyline>
                            <polyline id="Rectangle-Copy-5" fill-opacity="0.599999964" fill="#B82322" points="57.17422 2.29194437 57.17422 30.5298939 51.6931859 30.5298939 51.6931859 2.29194437"></polyline>
                            <polyline id="Rectangle-Copy" fill-opacity="0.599999964" fill="#FFFFFF" points="84.5661596 2.27809778 84.5661596 30.5160473 83.9346687 30.5160473 83.9346687 2.27809778"></polyline>
                            <polyline id="Rectangle-Copy-8" fill-opacity="0.599999964" fill="#FFFFFF" points="79.5418784 2.27809778 79.5418784 30.5160473 78.9103875 30.5160473 78.9103875 2.27809778"></polyline>
                            <polyline id="Rectangle-Copy" fill-opacity="0.599999964" fill="#FFFFFF" points="92.780718 6.17190172 46.63976 6.17190172 46.63976 5.53877815 92.780718 5.53877815"></polyline>
                            <polyline id="Rectangle-Copy-9" fill-opacity="0.599999964" fill="#FFFFFF" points="92.780718 20.6148801 46.63976 20.6148801 46.63976 19.9817566 92.780718 19.9817566"></polyline>
                            <polyline id="Rectangle-Copy-9" fill-opacity="0.599999964" fill="#FFFFFF" points="92.780718 24.4300065 46.63976 24.4300065 46.63976 23.7968829 92.780718 23.7968829"></polyline>
                            <polyline id="Rectangle-Copy-8" fill-opacity="0.599999964" fill="#FFFFFF" points="92.780718 9.98702809 46.63976 9.98702809 46.63976 9.35390452 92.780718 9.35390452"></polyline>
                            <polyline id="Rectangle-Copy-8" fill="#45474B" points="69.3141173 29.1156695 69.3141173 0.877719978 69.9456082 0.877719978 69.9456082 29.1156695"></polyline>
                            <polyline id="Rectangle-Copy-8" fill="#45474B" points="92.780718 15.4372086 46.63976 15.4372086 46.63976 14.8040851 92.780718 14.8040851"></polyline>
                            <polyline id="Rectangle-Copy" fill-opacity="0.599999964" fill="#FFFFFF" points="60.358259 2.27809778 60.358259 30.5160473 59.7267681 30.5160473 59.7267681 2.27809778"></polyline>
                            <polyline id="Rectangle-Copy-8" fill-opacity="0.599999964" fill="#FFFFFF" points="55.3339777 2.27809778 55.3339777 30.5160473 54.7024869 30.5160473 54.7024869 2.27809778"></polyline>
                            <polyline id="Rectangle" fill-opacity="0.800000012" fill="#56AAC3" points="46.2121518 3.89182708 46.2121518 7.1619354 0.0711938199 7.1619354 0.0711938199 3.89182708"></polyline>
                            <polyline id="Rectangle-Copy-6" fill-opacity="0.800000012" fill="#56AAC3" points="46.2121518 18.3348055 46.2121518 21.6049138 0.0711938199 21.6049138 0.0711938199 18.3348055"></polyline>
                            <polyline id="Rectangle-Copy-3" fill-opacity="0.800000012" fill="#56AAC3" points="46.2121518 7.97946248 46.2121518 11.2495708 0.0711938199 11.2495708 0.0711938199 7.97946248"></polyline>
                            <polyline id="Rectangle-Copy-7" fill-opacity="0.800000012" fill="#56AAC3" points="46.2121518 22.4224409 46.2121518 25.6925492 0.0711938199 25.6925492 0.0711938199 22.4224409"></polyline>
                            <polyline id="Rectangle-Copy" fill-opacity="0.599999964" fill="#B82322" points="41.1878705 2.29194437 41.1878705 30.5298939 35.7068364 30.5298939 35.7068364 2.29194437"></polyline>
                            <polyline id="Rectangle-Copy-4" fill-opacity="0.599999964" fill="#B82322" points="16.9799699 2.29194437 16.9799699 30.5298939 11.4989358 30.5298939 11.4989358 2.29194437"></polyline>
                            <polyline id="Rectangle-Copy-2" fill-opacity="0.599999964" fill="#B82322" points="34.7933308 2.29194437 34.7933308 30.5298939 29.3122967 30.5298939 29.3122967 2.29194437"></polyline>
                            <polyline id="Rectangle-Copy-5" fill-opacity="0.599999964" fill="#B82322" points="10.5854301 2.29194437 10.5854301 30.5298939 5.10439603 30.5298939 5.10439603 2.29194437"></polyline>
                            <polyline id="Rectangle-Copy" fill-opacity="0.599999964" fill="#FFFFFF" points="37.9773697 2.27809778 37.9773697 30.5160473 37.3458789 30.5160473 37.3458789 2.27809778"></polyline>
                            <polyline id="Rectangle-Copy-8" fill-opacity="0.599999964" fill="#FFFFFF" points="32.9530885 2.27809778 32.9530885 30.5160473 32.3215976 30.5160473 32.3215976 2.27809778"></polyline>
                            <polyline id="Rectangle-Copy" fill-opacity="0.599999964" fill="#FFFFFF" points="46.1919282 6.17190172 0.0509701707 6.17190172 0.0509701707 5.53877815 46.1919282 5.53877815"></polyline>
                            <polyline id="Rectangle-Copy-9" fill-opacity="0.599999964" fill="#FFFFFF" points="46.1919282 20.6148801 0.0509701707 20.6148801 0.0509701707 19.9817566 46.1919282 19.9817566"></polyline>
                            <polyline id="Rectangle-Copy-9" fill-opacity="0.599999964" fill="#FFFFFF" points="46.1919282 24.4300065 0.0509701707 24.4300065 0.0509701707 23.7968829 46.1919282 23.7968829"></polyline>
                            <polyline id="Rectangle-Copy-8" fill-opacity="0.599999964" fill="#FFFFFF" points="46.1919282 9.98702809 0.0509701707 9.98702809 0.0509701707 9.35390452 46.1919282 9.35390452"></polyline>
                            <polyline id="Rectangle-Copy-8" fill="#45474B" points="22.7253274 29.1156695 22.7253274 0.877719978 23.3568183 0.877719978 23.3568183 29.1156695"></polyline>
                            <polyline id="Rectangle-Copy-8" fill="#45474B" points="46.1919282 15.4372086 0.0509701707 15.4372086 0.0509701707 14.8040851 46.1919282 14.8040851"></polyline>
                            <polyline id="Rectangle-Copy" fill-opacity="0.599999964" fill="#FFFFFF" points="13.7694691 2.27809778 13.7694691 30.5160473 13.1379782 30.5160473 13.1379782 2.27809778"></polyline>
                            <polyline id="Rectangle-Copy-8" fill-opacity="0.599999964" fill="#FFFFFF" points="8.74518785 2.27809778 8.74518785 30.5160473 8.11369698 30.5160473 8.11369698 2.27809778"></polyline>
                        </g>
                    </g>
                    <path d="M0.5,1.25 L375.5,1.25" id="Line" stroke="#FFFFFF" stroke-width="0.5" stroke-linecap="square"></path>
                    <path d="M0,31.25 L375,31.25" id="Line" stroke="#FFFFFF" stroke-width="0.5" stroke-linecap="square"></path>
                </g>
            </g>
        </g>
    </g>
</svg>