<svg xmlns="http://www.w3.org/2000/svg" viewBox="0 0 191.56 337.95"><title>资源 6</title><g id="图层_2" data-name="图层 2"><g id="图层_1-2" data-name="图层 1"><path d="M96,338c-10.86-4.08-18.48-12.28-25.63-20.81C58.44,302.9,47,288.23,38.06,271.88,27.13,252,20.38,230.65,16,208.48c-4.8-24.44-6.53-49.17-7-74-.41-22-.33-44-.92-66C7.66,52,4.82,35.73.76,19.71A27.2,27.2,0,0,1,0,14.52c-.26-4.8,1.34-7.91,6-9.1A52.69,52.69,0,0,1,20.76,3.63c9.41.33,18.76.25,28.17-.06,18.3-.61,36.64-.47,55-.3,17.67.16,35.32.47,52.93-1.37C163,1.25,169.21.46,175.43.06a35,35,0,0,1,8.68.66c5.17,1,7.31,3.54,7.35,8.83,0,5.57-.34,11.15-.32,16.72.05,12.91.71,25.84.24,38.73-.51,14-1.56,27.94-3.21,41.82-3.95,33.2-10.29,66-16.06,99-3.28,18.67-6.52,37.36-12.56,55.4-7.1,21.2-16.68,41.18-30.81,58.67-6.47,8-14.1,14.65-24.41,17.38-.79.21-1.56.48-2.33.73ZM46,16.11l0-.2c-8.24,0-16.49-.11-24.73,0-6.54.11-8.58,2.75-7.47,9.23.78,4.59,1.82,9.14,2.46,13.74,2,14.85,3.76,29.73,3.81,44.76q.07,21.37.36,42.75c.35,25.91,1,51.81,5.7,77.39,2.67,14.66,5.54,29.31,13.42,42.35q2.84,4.7,5.51,9.49c6.8,12.21,13.44,24.5,20.37,36.63,6.8,11.9,16.49,21.28,27.1,29.74,5.16,4.11,8.48,4.14,13.8.34,7.37-5.25,14.24-11.11,19.16-18.8,10-15.66,18.67-31.86,23.54-50.1,6.27-23.47,12.6-46.9,16.74-70.85,2.55-14.74,4.72-29.56,6.77-44.38,1.53-11,2.64-22.13,3.85-33.21.61-5.63.79-11.31,1.6-16.9,1.52-10.55,3.12-21,2.51-31.8-.66-11.62-2.11-23.25-.43-34.91a16.36,16.36,0,0,0,0-3.5c-.24-3.25-1.57-4.94-4.79-5.47a35.74,35.74,0,0,0-7.19-.31c-13.14.56-26.27,1.41-39.41,1.79-16.31.48-32.64.51-49,.91C68.4,15.13,57.18,15.68,46,16.11Z"/><path d="M120,26.48c10,.66,19,1.34,28.06,1.8a78.63,78.63,0,0,0,8.95-.5c.75,0,1.49-.19,2.24-.23,7.18-.41,10.66,3.31,9.61,10.39-1,6.5-2.25,13-3,19.48-.82,7-1.54,14.09-1.69,21.15-.52,24.82-.3,49.67-1.29,74.46-.76,19.18-2.21,38.41-6.91,57.15a96.21,96.21,0,0,1-5,14.35c-5.92,13.83-11.93,27.63-18.19,41.32-5.15,11.25-13,20.66-21.13,29.88a24.47,24.47,0,0,1-3.69,3.35c-5.27,4-10,3.93-14.8-.67a35.42,35.42,0,0,1-7.2-9.16c-7.89-15.69-18-29.94-27.64-44.54s-15.07-31-19.22-47.71c-3.45-13.95-6-28.12-8.77-42.23a86.37,86.37,0,0,1-1.05-21.38A228.24,228.24,0,0,0,28.82,109,210.09,210.09,0,0,1,30.44,70.6c1-7.86.48-16,.35-23.94s.81-9.31,8.61-10.51C58.22,33.26,77,30.22,95.91,27.74,104.14,26.66,112.53,26.83,120,26.48Zm-19,261.67a79.84,79.84,0,0,0,17.92-21.24c6.84-11.29,11.51-23.58,16.48-35.75a211.2,211.2,0,0,0,15.5-68.35c1.12-19.86,1.35-39.79,1.25-59.68a361,361,0,0,1,3.27-50.79c.55-4.06.52-8.21.75-12.29a11.58,11.58,0,0,0-1.16-.15l-75.71,1a7.33,7.33,0,0,0-1.24.11c-11.35,2.13-22.7,4.28-34.06,6.36-1.51.28-2,.84-2,2.42-.14,31.81-1.3,63.62,1,95.42,1.52,20.94,4.84,41.49,11.34,61.45,3.5,10.75,7.28,21.41,13.77,30.88,8,11.66,15.81,23.45,23.58,35.26C94.8,277.76,97.72,282.88,100.93,288.14Z"/></g></g></svg>