<svg xmlns="http://www.w3.org/2000/svg" viewBox="0 0 219.83 296.56"><title>资源 9</title><g id="图层_2" data-name="图层 2"><g id="图层_1-2" data-name="图层 1"><path d="M115.31,296.53c-15.23,0-30.47.11-45.7-.07-4.22-.05-8.41-1.11-12.64-1.46-4.62-.39-9.27-.56-13.91-.7-4.32-.13-8.68.33-12.94-.19-8.18-1-11.36-4.43-11.53-12.73-.16-7.55.37-15.11.64-22.67.15-4.07.48-8.14.55-12.22.19-10.91.52-21.83.37-32.73-.19-14.15-.67-28.3-1.26-42.45-.67-16.31-2.19-32.6-2.26-48.9A256.72,256.72,0,0,0,9.3,63.84C6.42,51.72,3.53,39.6.84,27.44A53.74,53.74,0,0,1,0,18.28c-.12-2.65,1.44-4.18,3.93-4.71a19.78,19.78,0,0,1,4.21-.5c18.58.13,37.15.37,55.73.43,8.74,0,17.5.09,26.2-.6,6-.47,11.93-2.15,17.87-3.38,8.76-1.82,17.59-.92,26.41-1,5.32,0,10.64-.27,16-.53a10.34,10.34,0,0,0,3.61-.88,61.75,61.75,0,0,1,21-4.91c10-.69,19.9-1.63,29.87-2.18a35.13,35.13,0,0,1,9.38,1c5.19,1.15,6.41,3.56,4.51,8.54a36.68,36.68,0,0,1-3.47,7.16c-4.61,7-6.46,14.58-6.39,22.93.14,16.66-.24,33.32-.14,50,.09,14.07.79,28.15.78,42.22,0,12-.6,24-1,36-.59,17.22,1.44,34.24,3.77,51.25,1.73,12.69,3.14,25.42,4.83,38.12.49,3.7,1.47,7.33,2.23,11,1.94,9.36-1.49,15.53-10.61,18.23-4.2,1.25-8.64,1.7-12.94,2.62-4,.85-8.09,1.4-11.83,2.87-8.94,3.51-18.2,4.62-27.65,4.59-9.08,0-18.15-.43-27.23-.59-4.58-.08-9.16,0-13.74,0ZM202.78,11.72c-5.19,0-10-.54-14.59.12-8,1.14-16,2.75-23.87,4.67a103.22,103.22,0,0,1-33.1,3,63.58,63.58,0,0,0-19.57,1.07,171.9,171.9,0,0,1-36.57,4c-15,.19-30,0-45-.08-3.75,0-7.49-.2-11.24-.38-1.63-.08-2.83.15-2.77,2.17.15,4.7-.31,9.51.52,14.09C18.36,50,21,59.46,22.85,69c1.48,7.81,2.54,15.73,3.25,23.65.68,7.61.88,15.27.92,22.92.07,12.47-.53,25-.18,37.41.36,12.88,1.77,25.72,2.26,38.6.62,16.14.76,32.3,1.12,48.45,0,1.25.2,2.49.2,3.74,0,12,0,24-.09,35.95,0,1.51.22,2.16,1.81,2.14a57,57,0,0,1,6.49.18c10.55,1.09,21.08,2.76,31.66,3.27,11.11.54,22.28,0,33.42-.08,11.4-.05,22.81-.27,34.21,0,10.41.23,20.82.43,31-1.72s20.57-4.93,30.85-7.43c5.33-1.3,6.38-3.14,5.37-8.6a60.62,60.62,0,0,1-.69-7.89c-.21-3.94,0-7.94-.53-11.82-.88-6.06-2.82-12-1.92-18.22a43.44,43.44,0,0,0-1-15.78c-1.92-8.75-3.77-17.54-3.55-26.55.2-8.23,1-16.45,1-24.68.09-39.66-.09-79.32.06-119,0-6.52,1.06-13.06,1.89-19.55C200.86,20.17,201.84,16.41,202.78,11.72Z"/><path d="M47.41,48.6c4.49,0,9.47,0,14.45,0,14.82.13,29.66.73,44.46.25,8.25-.27,16.42-2.56,24.67-3.53,7.68-.9,14.9-3.18,22.17-5.62a34.15,34.15,0,0,1,11.94-1.79c4.69.18,7.45,3.42,7.42,8.15,0,5.72-1,11.43-1,17.16-.11,9-.31,18,.4,26.92,1.43,17.91,3.66,35.76,5.15,53.66,1.42,17,2.35,34.05,3.41,51.08.59,9.47.69,19,1.64,28.42.72,7.17,2.64,14.22,3.62,21.38a55.3,55.3,0,0,1,.27,12.18c-.66,7.57-5.15,11.81-12.76,12.05-4.3.13-8.62-.62-12.94-.71-10.61-.23-21.23-.61-31.84-.38-15.07.33-30.12,1.18-45.19,1.75-6.41.24-12.82.57-19.23.43-10.06-.22-12.88-3.51-11.85-13.58.85-8.36,2.09-16.68,2.94-25a122.9,122.9,0,0,0-.9-34.61c-3.74-20.44-8.15-40.77-11.76-61.23-2.6-14.73-4.84-29.56-6.32-44.43C34.86,78.14,34.75,65,34.31,52c-.12-3.71.05-7.51,2-10.93,2.21-3.91,5.26-4.19,7.62-.39C45.29,42.88,46.06,45.47,47.41,48.6ZM64.34,257.67l110.27-1c-.09-1.35-.13-2.33-.22-3.3q-.9-8.94-1.82-17.87-1.65-16.14-3.3-32.27c-.88-8.78-2.08-17.54-2.52-26.34-.81-16.47-1.11-33-1.71-49.44-.28-7.64-.57-15.26-2.33-22.79A92.43,92.43,0,0,1,160,88.43c-.37-7.22.2-14.48.28-21.73.07-5.64,0-11.28,0-17.17-6.27,3.63-13.23,4.63-20.27,5.34-4.14.42-8.39.48-12.37,1.54C113.79,60.13,99.76,61,85.41,60.17c-12-.68-24.12-.12-36.18-.14-2.15,0-2.94.91-3.16,3.08C44.35,79.93,46,96.58,49.39,113c3.89,18.79,8.7,37.39,12.84,56.13a205.52,205.52,0,0,1,4.21,24.57c1.45,15.06-.24,30.11-1.25,45.15C64.78,245,64.63,251.11,64.34,257.67Z"/></g></g></svg>