<svg xmlns="http://www.w3.org/2000/svg" viewBox="0 0 231.01 283.17"><title>资源 8</title><g id="图层_2" data-name="图层 2"><g id="图层_1-2" data-name="图层 1"><path d="M27.41,143.18q-.3-42.49-.61-85c0-4.41-.18-8.83-.35-13.24-.26-6.73,1.7-9.23,8.43-9.69,9.3-.64,18.65-.72,27.94-1.49,18-1.49,36-3,53.92-5.09,8.87-1.06,17.53-3.81,26.36-5.41A166.09,166.09,0,0,1,160,21.39c7.71-.6,15.45-.94,23.18-1.41,5.25-.32,9.57,1.59,11.7,6.39a42.77,42.77,0,0,1,3.84,13.06c1.38,15.17,2.74,30.37,3.06,45.58.26,12.71-1.2,25.45-1.44,38.19-.27,14.32-.15,28.66,0,43,.21,17.58.62,35.15,1,52.72.23,11.58.51,23.13-2.29,34.54-1.35,5.51-4.23,9.08-10,9.45-6.87.44-13.81,1.17-20.64.67a696.41,696.41,0,0,0-88.39-.86c-11.72.62-23.49.23-35.23.35a11.17,11.17,0,0,1-11-6.89,52.32,52.32,0,0,1-3.69-12.58c-.67-4.07-.43-8.3-.51-12.46q-.56-31.23-1.05-62.46c-.12-8.49,0-17,0-25.48ZM184,31.69l-76.27,10,7,56.25,13-1c.75-5.49,1.36-10.69,2.18-15.86,1.12-7,1.63-13.89-1.05-20.67a7.59,7.59,0,0,1-.46-2.19,5.14,5.14,0,0,1,3.1-5.46c2.1-1,3.91-.32,5.47,1.16a14.55,14.55,0,0,1,4.33,8.52,65.88,65.88,0,0,1-.26,20.64c-.64,4.25-1.46,8.47-2.22,12.88L150,98c-.28-5.27-.62-10.16-.77-15-.13-4.25,0-8.51,1.85-12.49,1.52-3.29,5.16-5.59,7.66-4.92s4.09,3.52,3.61,7.65c-.58,5-1.59,10-2.23,15-.75,6,2.33,10,8.27,10,6.78,0,13.57-.69,20.61-1.09ZM39.55,136.24h1q0,9.24,0,18.49c0,4.75,0,9.5.1,14.25,0,.75.75,2,1.31,2.11a60,60,0,0,0,9.38,1.06c11.57.12,23.14,0,34.72,0,5.58,0,11.16,0,16.74,0,4,0,6.13-1.47,6.49-5.36a59.18,59.18,0,0,0-.3-12.09c-.67-5.91-2.27-11.74-2.59-17.65-.37-6.79.46-13.64.3-20.45-.14-6-2.14-8-7.18-8.7-3.53-.49-7.09-.79-10.63-1.25-8.14-1-16.26-2.27-24.41-3.17-7.26-.81-14.56-1.27-21.83-1.92-2.84-.25-3.06-.08-3.05,2.91Q39.56,120.38,39.55,136.24ZM141,251.8c0-12.47,0-24.63,0-36.8a36.64,36.64,0,0,1,.35-5.48c.54-3.51,2.4-5.2,5.34-5.12,2.6.08,4.29,1.88,4.69,5.21a54.1,54.1,0,0,1,.41,6.22c0,10.75,0,21.5,0,32.25,0,.88,0,1.76,0,2.69h12c-1.22-7.09-2.78-14-3.51-21a208.36,208.36,0,0,1-.94-21.91,5.12,5.12,0,0,1,5.29-5.5c2.41,0,4.32,2.07,4.77,5.51.37,2.89.5,5.8.83,8.7,1.28,11.34,5,22.48,2.65,34.17H188l2-68-70.27-1,1,70.09Zm21.43-143.3c1,1.87,1.6,3.2,2.35,4.44,1,1.71,2.24,3.31,3.24,5,2.12,3.64.54,7.39-3.54,8.55a8.1,8.1,0,0,1-10.11-5.44,63.32,63.32,0,0,1-2.06-10.4c-.2-1.32-.3-2.2-1.94-2.19q-16,.06-32,0c-1.46,0-1.84.64-1.76,2,.49,8,1,15.94,1.37,23.91q.85,17.32,1.54,34.66c.06,1.64.64,2.12,2.22,2.17a87.25,87.25,0,0,1,10.69.72c2.37.37,2.86-.27,2.84-2.48-.09-10.41-.05-20.82,0-31.23a17.46,17.46,0,0,1,.45-3.68c.62-2.78,2.28-4.32,4.67-4.29,2.69,0,3.86,1.88,4.12,4.18.46,4,.83,8.1.92,12.16.16,7.16.21,14.33.06,21.49-.06,2.62.8,3.35,3.28,3.15a53,53,0,0,1,7.74,0c2.28.16,2.83-.73,2.74-2.89-.27-6.49-.53-13-.44-19.47a46.08,46.08,0,0,1,1.43-9.77,3.66,3.66,0,0,1,4.47-2.71c1.42.37,2.74,1.92,3.64,3.25a7,7,0,0,1,.67,3.6q.32,12.86.5,25.72c0,1.55.43,2.27,2.12,2.25,5.16-.07,10.33-.06,15.5,0,1.45,0,2.11-.43,2.12-2,.09-11.8.31-23.61.35-35.41,0-6.46-.28-12.93-.36-19.39-.07-5.91,0-5.91-5.93-5.91ZM64,251c-.15-.86-.21-1.35-.32-1.83C61,237.73,59.4,226.19,61,214.5a48.17,48.17,0,0,1,3.5-12.62c1.59-3.63,6.28-3.43,8.09.16a11.31,11.31,0,0,1,1,5.5c-.43,7.8-1.36,15.57-1.56,23.37-.15,5.86.67,11.68,5.77,15.81A4.37,4.37,0,0,1,79.2,249c.48,2.24,1.87,2.14,3.66,1.69,0-.66.09-1.31.09-2,0-15,0-30,0-45a33.8,33.8,0,0,1,.6-6.44,4.63,4.63,0,0,1,4.32-3.9,4.57,4.57,0,0,1,4.93,2.68,12.82,12.82,0,0,1,1.54,5.18c0,10-.27,20-.38,30-.07,6.47,0,12.94,0,19.45h14.84v-67.8h-68c1.79,8.65,1.46,17.19,1.1,25.77s-.86,17.49-.37,26.18c.3,5.28,2.31,10.48,3.65,15.69a2.08,2.08,0,0,0,1.5,1.27C52.44,251.62,58.15,251.28,64,251ZM103.05,98,96,42.71l-58,4V90.89C59.87,91.21,81.4,93,103.05,98Z"/><path d="M217.06,12c3.28,2.07,4.3,3.42,3.19,6.78-2.19,6.62-.83,13.21-.63,19.82.27,8.74.73,17.48.64,26.22-.07,6.73-1.3,13.46-1.27,20.18.08,15.57.62,31.15,1,46.72,0,1.24,0,2.49,0,3.94H209.29c0-1,0-2,0-3.07q-.19-46.5-.42-93a92.35,92.35,0,0,0-1-10.93A35.31,35.31,0,0,1,209,12.75c-3.27.43-6.3.78-9.31,1.24-14.39,2.2-28.75,4-43.41,3.89-46.33-.32-92.66-.11-139-.11H13.91c0,4.06-.07,7.87,0,11.67Q14.63,62,15.39,94.66q.89,41,1.74,82c.22,10.16.33,20.33.8,30.48.5,10.81,1.3,21.61,2.12,32.4.65,8.46,1.59,16.9,2.26,25.37.13,1.6.65,2.17,2.17,2.26,5.23.33,10.46,1.05,15.69,1.06,41.16.09,82.33,0,123.49,0,8.5,0,17,.44,25.49.07,4.5-.19,9-1.63,13.41-2.6,3.17-.69,6.27-1.67,9.45-2.25,1.85-.33,2-1.22,1.82-2.77-.87-8.36-2-16.72-2.42-25.11-.89-19.14-1.43-38.29-2-57.44-.16-5,0-10,0-15.13h10.72c.27,31.52,1.08,63,5.07,94.44,5.69,2.66,7,5.61,5,11.85a24.86,24.86,0,0,1-7.88,11.93c-4.28,3.48-7.47,2.16-8.26-3.33-.12-.81-.17-1.64-.26-2.66-3.09.72-6,1.76-9,2-8.21.7-16.43,1.3-24.66,1.51-20,.49-40,.92-60,1-17.74.07-35.49-.53-53.23-.5-15.33,0-30.65.51-46,.83-7.29.15-10.56-2.55-11.09-9.75-.29-3.89.2-7.84-.13-11.72-.8-9.53-2-19-2.79-28.57-.61-7.8-1.09-15.63-1.08-23.44,0-15.58.58-31.15.54-46.73,0-4.78-1.41-9.54-1.86-14.34-.53-5.72-.93-11.47-1-17.2-.26-26-.39-52-.54-78,0-8.49.23-17-.11-25.46-.14-3.41-1.42-6.8-2.36-10.14-1.75-6.23,1.92-11.37,8.21-10,17.29,3.64,34.71,1.75,52.06,2q42.36.67,84.73.49c12.39-.07,24.82-.77,37.15-2,9.89-1,19.64-3.43,29.48-5a17.31,17.31,0,0,1,7.08.4c2.64.72,3.58,3.17,2.26,5.6A47.36,47.36,0,0,1,217.06,12Z"/><path d="M92.4,140c-.44,3.5-.81,8.06-1.62,12.55-.7,3.89-2.34,5.25-5.25,5.26a6.42,6.42,0,0,1-6.2-5.47,68.69,68.69,0,0,1-.24-22.84c.61-4.22,2.07-5.6,5.07-5.69a7.76,7.76,0,0,1,7.25,5.47,11.06,11.06,0,0,1,.47,2.18C92.06,134,92.19,136.48,92.4,140Z"/><path d="M69.9,137.16c0,2.91,0,5.83,0,8.74-.05,3.08-1.23,4.82-3.64,5.62-2.66.88-4.6-.35-6-2.35a19.53,19.53,0,0,1-2.65-5,34.78,34.78,0,0,1-1.1-18.94,13.35,13.35,0,0,1,2.09-4.75c2.85-4,8.15-3.37,9.85,1.18a27,27,0,0,1,1.44,7C70.08,131.48,69.89,134.33,69.9,137.16Z"/><path d="M63.26,68.15c.66-3.41,1.09-6.45,1.88-9.4a5.18,5.18,0,0,1,5.12-4c2.49-.1,3.79,1.6,4.59,3.59a27.19,27.19,0,0,1,.59,19,5.47,5.47,0,0,1-5.08,3.81,4.44,4.44,0,0,1-4.71-3.39C64.61,74.56,64,71.22,63.26,68.15Z"/><path d="M63.3,66.17c-.7,3.51-1.14,6.29-1.83,9A4.88,4.88,0,0,1,57,78.94c-2.43.3-4-1.08-4.86-3.11a26.64,26.64,0,0,1-.62-19.89,4.89,4.89,0,0,1,4.64-3.22,4,4,0,0,1,4.25,2.85C61.62,59.21,62.46,63,63.3,66.17Z"/></g></g></svg>