<svg xmlns="http://www.w3.org/2000/svg" viewBox="0 0 252.87 230.96"><title>资源 1</title><g id="图层_2" data-name="图层 2"><g id="图层_1-2" data-name="图层 1"><path d="M141.27,231c-16.43,0-32.82-.28-49.13-2.54-20.2-2.8-39.26-8.79-56.47-20a44.68,44.68,0,0,0-4.92-3c-11.84-5.7-19-16-25.54-26.66C.36,170.92-.24,161.88.07,152.93c.52-15.39,1.14-30.8,2.26-46.16C4.25,80.41,15.7,59,37.45,43.76c11.29-7.92,23.2-15,34.79-22.47a116.27,116.27,0,0,0,10.25-7.11A59.52,59.52,0,0,1,118.43.47c12.17-.53,24.3-1,36.39.94a18.09,18.09,0,0,1,5.06,1.3c8.51,4.17,17.75,5.52,26.92,7.06A55,55,0,0,1,215.09,23c17.31,15.48,29.46,34.3,35.73,56.65,1.57,5.6,1.77,11.68,1.88,17.56.27,14.23,0,28.48.17,42.72.11,11.59-3,22.4-7.71,32.79-9,20.07-22.28,36.64-41.32,48.16A67.63,67.63,0,0,1,168.26,231Zm78.91-41.57c4.82-3.1,9.2-8.53,12.53-15.39,5.54-11.43,7.86-23.66,8.51-36.21.45-8.73.42-17.48.54-26.22.13-9.23.7-18.51-1.8-27.56-6.37-23-19.69-41.22-38.47-55.68a22.77,22.77,0,0,0-10.93-4.5,38.77,38.77,0,0,1-7.31-1.57c-24.07-8.45-48.93-10.23-74.16-9a15.34,15.34,0,0,0-1.89.33c.22.87.41,1.5.53,2.15,1,5.59-.78,8.57-6.23,10.11a31.56,31.56,0,0,1-5.38,1c-7.59.77-14.3,3.21-19.92,8.72-2.55,2.5-5.93,4.21-9.09,6-5.56,3.17-11.38,5.89-16.84,9.22C38.51,58,28.41,66.91,21.85,79.29c-5.73,10.83-7.76,22.65-8.56,34.65-.84,12.54-1.2,25.12-1.65,37.69-.3,8.29,1.1,16.11,5.64,23.39,9.07,14.53,21.84,24.49,37.25,31.36,20.61,9.19,42.39,13,64.77,14,2,.09,3.92,0,6,0,0-.94,0-1.6,0-2.25-.19-21.58-.58-43.15-.53-64.73,0-20.49.6-41,.85-61.47.13-10.82.15-21.63.12-32.45,0-5.74-.36-11.49-.35-17.23,0-3.33,1.22-6.2,4.4-7.85,2.58-1.33,6.5-.82,8.41,1.09s2.08,4.08.07,7.28a15.21,15.21,0,0,0-2,8.85c.27,10.41.81,20.81.83,31.22q.15,66.73,0,133.47c0,1,0,1.95,0,3.15,7.77.25,15.24.54,22.72.71,15.24.34,29-4.18,41.53-12.75,6.23-4.26,9.36-10,8.88-17.57-.35-5.4-.86-10.81-.88-16.21q-.14-46.62,0-93.23a14.69,14.69,0,0,1,.81-5.13c1.48-3.88,5.86-4.53,8.3-1.19a9.38,9.38,0,0,1,1.71,4.81c.23,4.73.1,9.47.1,14.21q0,46.74-.08,93.48C220.18,187.42,220.18,188.24,220.18,189.39Z"/><path d="M177.31,138.72c-.57-13.62-1.11-25.94-1.58-38.25-.44-11.62.81-23.1,2.62-34.56,1-6.23,1.16-12.59,2-18.86.34-2.7,1.07-5.44,3.73-7,3.56-2.14,6.35-1.27,7.15,2.78A36.92,36.92,0,0,1,192,54.41c-4,31-2.79,62.22-3.29,93.36-.11,6.66-.81,13.3-.95,20-.14,6.32.08,12.64.18,19,.07,4,.3,8,.29,12,0,3-1.36,4.78-3.79,5.52a5.41,5.41,0,0,1-6.46-2.53,19.6,19.6,0,0,1-2.14-8c0-11.32.37-22.65.68-34C176.74,152.23,177.08,144.83,177.31,138.72Z"/><path d="M92.71,58.76c-1.3,10.41-2.21,21.89-4.25,33.15A226.56,226.56,0,0,0,85,149.3c.84,11.34,1.27,22.8-.69,34.14a19.42,19.42,0,0,1-1.7,5.17,5.82,5.82,0,0,1-5.55,3.2c-2.27,0-3.48-1.75-4.29-3.68-1.59-3.79-1.65-7.77-1.39-11.78.63-9.46,1.5-18.91,1.81-28.38.28-8.32,0-16.65-.12-25a161.84,161.84,0,0,1,3.8-34.16c2-9.79,2.14-19.66,2.48-29.56A59.42,59.42,0,0,1,80.8,49.7a5.55,5.55,0,0,1,1.66-3.26,10.86,10.86,0,0,1,5.23-2.33c2.18-.12,3.14,2.07,3.51,4C91.82,51.25,92.12,54.49,92.71,58.76Z"/><path d="M30.26,160.5c.16-14.66,2.11-31.76,4.31-48.85,1-8.08,1.64-16.21,2.7-24.29,1-7.32,2.26-14.6,3.48-21.89.44-2.62.93-5.27,3.68-6.7,3.4-1.76,6.19-1,7,2.69a42.86,42.86,0,0,1,1,13.06c-1.05,9.91-3,19.74-4.26,29.63-1.76,13.36-3.3,26.75-4.89,40.13-.57,4.79-1.29,9.59-1.41,14.4s.43,9.78.61,14.67c.14,3.9.34,7.81.2,11.7a6.59,6.59,0,0,1-4,6.16c-2.87,1.28-5.21.72-6.36-2.24a28.68,28.68,0,0,1-2-8.67C30,174.59,30.26,168.84,30.26,160.5Z"/></g></g></svg>