<svg xmlns="http://www.w3.org/2000/svg" xmlns:xlink="http://www.w3.org/1999/xlink" viewBox="0 0 216.05 301.09"><defs><style>.cls-1{fill:none;}.cls-2{clip-path:url(#clip-path);}</style><clipPath id="clip-path" transform="translate(-30.43 -14.42)"><rect class="cls-1" width="278" height="324"/></clipPath></defs><title>资源 7</title><g id="图层_2" data-name="图层 2"><g id="图层_1-2" data-name="图层 1"><g class="cls-2"><path d="M236.58,289c1.42,0,2.42,0,3.41,0,4.58.08,7.61,3.78,6.09,8.09a15.1,15.1,0,0,1-4.28,6.19c-6.15,5.25-13.81,6.66-21.56,7.63-10.24,1.27-20.45,2.76-30.72,3.72-6.7.63-13.47.61-20.21.67-17,.14-34,.13-51,.23-17.48.1-34.74-1.29-51.55-6.58-4.66-1.47-9.56-2.19-14.3-3.42A70.21,70.21,0,0,1,45.17,303c-5.16-2-7.58-5.67-7.83-11.27-.21-4.63-1.58-9.21-1.77-13.85-.41-10.06-.45-20.13-.56-30.2-.18-16.74-.08-33.48-.5-50.21-.77-30.89-1.89-61.77-2.72-92.66-.19-6.9.43-13.83.27-20.74C31.81,73,31.25,62,30.74,50.94c-.35-7.66-.82-15.32,1.27-22.84.16-.56.3-1.12.49-1.68,3-8.9,7.67-11.92,16.75-9.61,14.17,3.6,28.67,4,43.09,5.09s28.93,1.74,43.41,2c13,.22,26-.09,39-.7,10.46-.49,20.92-1.52,31.32-2.8,4-.49,7.76-2.32,11.64-3.52,2.3-.71,4.57-1.56,6.92-2.08,7.08-1.55,11.54,1.88,11.89,9.16.17,3.57.1,7.16.1,10.74q0,125.72,0,251.45Zm-11-260.43a8.52,8.52,0,0,0-1.22.12A154.67,154.67,0,0,1,185.88,34q-31.48.63-63,.83C100,35,77.11,34,54.46,30l-9-1.58c-.21.68-.35,1.07-.46,1.46-2.73,10.4-3.45,21-3.2,31.71.25,10.49,1.1,21,1.12,31.45,0,15.9-.31,31.8-.72,47.7-.31,11.86.73,23.61,2,35.37,1.18,11,2.64,22,3.1,33.05.65,15.81.39,31.65.74,47.48.24,11,.85,22,1.24,33a2.26,2.26,0,0,0,2.08,2.5c11.86,2.91,23.76,5.69,35.5,9a88.58,88.58,0,0,0,25.59,3c22.9-.29,45.81-.11,68.72-.15a72.73,72.73,0,0,0,9.71-.31c10.46-1.43,20.88-3.13,31.33-4.64,1.64-.24,2.47-.66,2.52-2.54.2-7.49.81-15,.82-22.47q.09-121.35,0-242.7Z" transform="translate(-30.43 -14.42)"/><path d="M62.71,51.5a5.46,5.46,0,0,1,5.78,5.57,2.88,2.88,0,0,1,0,1c-3.13,9.33-.92,18.82-.92,28.25q0,69.11,0,138.21,0,13.61,0,27.22c0,2.42-.28,4.71-2.69,6a5.44,5.44,0,0,1-8.11-3.17,31.18,31.18,0,0,1-1.68-9.75c-.05-8.48.42-17,.5-25.45s-.12-17-.05-25.47c.26-32.15.75-64.31.79-96.46,0-10.56-1.11-21.11-1.59-31.67a36.33,36.33,0,0,1,.38-8.66C55.81,53.6,59.09,51.46,62.71,51.5Z" transform="translate(-30.43 -14.42)"/><path d="M140.42,177.55q0-45,0-90c0-2.66-.12-5.33,0-8,.2-3.91,2.05-6,5.23-6.08s5.69,2.15,5.83,5.84c.29,7.48.36,15,.41,22.45,0,3.66-.3,7.33-.3,11q0,77.73,0,155.46c0,2.91.07,5.83-.08,8.74-.17,3.31-2,5.26-5,5.52-2.78.25-4.83-1.32-5.66-4.53a16.09,16.09,0,0,1-.41-4q0-48.23,0-96.47Z" transform="translate(-30.43 -14.42)"/><path d="M102.86,191c0,18-.07,36,0,54,0,7.33.48,14.65.72,22,0,1.08,0,2.17,0,3.25-.21,4.08-2,6.17-5.27,6.3a6.56,6.56,0,0,1-6.73-5.79A84,84,0,0,1,90.82,260c.34-30.24.82-60.48,1.16-90.72q.28-24.74.22-49.49a56.55,56.55,0,0,0-5.57-24.89c-2.07-4.27-1.25-7.23,2.08-9,4-2.16,7.19-1.33,9.84,2.67a31.13,31.13,0,0,1,4.83,15.06c.71,9.69,1.1,19.44,1,29.16-.13,19.41-.66,38.82-1,58.23Z" transform="translate(-30.43 -14.42)"/><path d="M199.79,224.68c-.81-7-1.87-14-2.38-21-.75-10.29-1.57-20.61-1.51-30.91.08-13.56,1.17-27.11,1.43-40.68.11-5.8-.81-11.61-1.18-17.42a43.57,43.57,0,0,1,.18-5,4.36,4.36,0,0,1,3.26-4.23,5.17,5.17,0,0,1,5.74,1.29c3.72,3.79,5.12,8.65,5.09,13.69,0,7.48-.56,15-1.12,22.44-1.33,17.95-2.44,35.91-.71,53.87.65,6.77,2.39,13.43,3.07,20.2.57,5.68.32,11.44.41,17.17a7.12,7.12,0,0,1-.27,1.72c-.94,4-2.79,5.71-5.91,5.63a6.7,6.7,0,0,1-6.31-6c-.49-3.53-.58-7.11-.84-10.66Z" transform="translate(-30.43 -14.42)"/><path d="M175.42,171c0-9.25.09-18.5,0-27.75-.08-6.49-.57-13-.63-19.47a46,46,0,0,1,.9-9.89,7.14,7.14,0,0,1,3.08-3.91c3-1.93,5.73-1,6.56,2.46a53,53,0,0,1,1.42,12.08c.05,27.25-.1,54.49-.12,81.74,0,6.32.42,12.64.37,19,0,2.87-.88,5.61-3.89,7s-5.49.8-6.31-2.44a51.25,51.25,0,0,1-1.53-11.8c-.17-15.66-.07-31.33-.07-47Z" transform="translate(-30.43 -14.42)"/></g></g></g></svg>