<svg xmlns="http://www.w3.org/2000/svg" viewBox="0 0 224.04 197.32"><title>资源 3</title><g id="图层_2" data-name="图层 2"><g id="图层_1-2" data-name="图层 1"><path d="M112.79,196.68c-11.07-.38-22.16-.5-33.21-1.21-17-1.09-33.53-4.24-48.63-12.69A72.14,72.14,0,0,1,5.08,158.34C.17,150.66-.35,142,.15,133.3c.78-13.62,4.42-26.69,8-39.76,3.85-14,6.91-28.3,12.75-41.69C34.19,21.38,58,5,90.51,1a130.78,130.78,0,0,1,73.91,12A120.9,120.9,0,0,1,205,44.89,93.72,93.72,0,0,0,211.62,52c7.16,6.94,10.06,15.86,11.19,25.31,2,16.68,1.32,33.42-.27,50.11-2.36,24.77-14.82,43-36.08,55.44-12.12,7.11-25,12.3-39,13.89-6.26.71-12.63.51-19,.45-5.24-.05-10.48-.51-15.72-.79Zm1.42-10.84c8.9-.41,17.8-.87,26.71-1.22,15.47-.61,29.55-5,42.08-14.39,11.21-8.36,20.89-17.79,25.62-31.42a99.75,99.75,0,0,0,4-51.42c-2-11.13-5.84-21.56-13.31-30.28-5-5.82-10.15-11.48-15.46-17C172.13,27.93,158,20,141.32,17c-9.65-1.72-19.42-2.92-29.17-3.9a81.66,81.66,0,0,0-15.89,0C91.4,13.61,86.64,15,81.84,16c-6.75,1.42-12.71,4-16,10.68a15.68,15.68,0,0,1-1.67,2.49C61.5,32.8,58.69,33.39,55,30.9a2.3,2.3,0,0,0-3.23.13A53.54,53.54,0,0,0,34.59,54.25C30.09,65.43,25.94,76.75,21.71,88c-3.9,10.39-7,21-7.94,32.11-.67,7.78-.68,15.62-.83,23.44a13.15,13.15,0,0,0,1,5.07,47.07,47.07,0,0,0,14.62,19.31c12.59,10,27.46,13.92,43,16.08C85.72,186,100,186.25,114.21,185.83Z"/><path d="M117.12,166.55c-11.16,0-22.34.48-33.46-.18-6.89-.4-13.73-2.33-20.5-3.95-4.33-1-8-3.63-11.39-6.51a31.21,31.21,0,0,0-7.68-5c-10.37-4.33-15.57-12.65-18.16-23-2.84-11.28-1.71-22.6,1.28-33.6,3.52-13,7.8-25.74,11.91-38.55,3.42-10.67,11.56-15,22.06-16.8,14.63-2.48,29.26-2.71,44-1.95,10.46.54,21,0,31.47.1,12.18.16,24.29,1,36,4.87a60.79,60.79,0,0,1,17,8.81c9.59,7.05,14,16.82,15.15,28.35,1.65,16.89.11,33.43-5.92,49.39-4.53,12-11.12,22.53-21.7,30.17a45.24,45.24,0,0,1-26.11,8.74c-8.65.16-17.31-.34-26-.51-2.66-.05-5.33,0-8,0Zm2-11.07c3.07,0,6.4,0,9.73,0,9,.07,18,.46,26.88-1.47,13.92-3,24.78-10.45,29.63-24.07,3.63-10.19,5.77-21,8-31.6,1.59-7.68.16-15.45-1.59-23-1.56-6.72-5.06-12.33-11.56-15.47-13-6.28-26.59-10.54-41.17-10.84-12.74-.26-25.48-.47-38.22-.48-10.06,0-20.13.36-30.19.45-9.08.08-15.29,4.85-20.1,12A5.12,5.12,0,0,0,50,62.44c-2.27,7.72-4.37,15.5-6.86,23.15-2.8,8.62-6.31,17.07-6.48,26.29-.28,14.28,4.9,25.67,18.09,32.48A90.15,90.15,0,0,0,88.66,154C98.68,154.83,108.77,155,119.11,155.48Z"/></g></g></svg>