<svg xmlns="http://www.w3.org/2000/svg" viewBox="0 0 280.68 217.95"><title>资源 2</title><g id="图层_2" data-name="图层 2"><g id="图层_1-2" data-name="图层 1"><path d="M57.82,15.16C56.33,6.23,61.66,3.43,68.71,1.89,80.75-.72,92.94-.42,105,1.54c26.1,4.25,52.12,9,77.62,16.2,22.63,6.42,43.89,16,64.39,27.39C264.74,55,274.65,70.56,278.4,90.06c5.95,30.86.3,59.57-17.39,85.71-6.7,9.89-16.1,16.68-26.25,22.63-12,7-24.12,13.85-37.82,17.1-12.54,3-25.29,2.63-38,2.11-18.3-.74-36.61-1.57-54.91-2.24-17.91-.66-35.77-1.58-53-7A78.53,78.53,0,0,1,22.66,192.9a42,42,0,0,1-10-12c-4.14-7.86-9-15.45-10.78-24.32a80.21,80.21,0,0,1-.63-30.76c2-10.7,4-21.41,6.25-32,.76-3.54,2.41-6.89,3.77-10.28,4.51-11.26,8.93-22.57,13.67-33.73,4.53-10.67,10.21-20.69,20-27.48C48.85,19.57,53.31,17.62,57.82,15.16ZM138,205c10.61.51,18.1.93,25.59,1.21,10.34.39,20.68.34,30.8-2.19,13-3.25,24.58-9.61,35.7-16.88,7.71-5,15-10.64,20.39-18.21,15.64-21.95,21.31-46.39,17.13-72.92-2.26-14.35-8.59-26.81-20.54-35.69a161.15,161.15,0,0,0-54-26.39c-8.66-2.37-17.44-4.22-25.71-7.88A33.8,33.8,0,0,0,160,23.85c-16.26-3-32.49-6.31-48.84-8.84-9.1-1.41-18.4-1.54-27.61-2.23-1.13-.08-2.38-.3-2.58,1.47-.41,3.59-2.85,5.19-6.05,6.11a23.92,23.92,0,0,0-6.06,2.22c-6,3.73-12.05,7.44-17.69,11.68-7,5.26-13,11.53-15.74,20.16-1.66,5.14-3,10.38-4.91,15.43-3.9,10.52-8.24,20.87-12,31.42-5.35,14.85-8.47,30.07-6.7,46S20.55,175.73,34,184.56c7.71,5.07,16.23,8.35,24.82,11.57A142.58,142.58,0,0,0,110.88,205C121,204.89,131,205,138,205Z"/><path d="M34.29,126.65c-.12-12.75.16-25.23,2.5-37.58A99.67,99.67,0,0,1,52,51.38c4.1-6.07,9.48-10.46,17-11.58a2.67,2.67,0,0,0,1.56-1.27c2-3.42,3.85-4.27,7.64-3.28a8,8,0,0,1,2.35.81c6.3,4.08,13.38,4,20.49,4.09,7.65.09,15.43-.31,22.92.9,14.35,2.31,28.53,5.63,42.79,8.5,8.31,1.67,16.65,3.21,24.95,5,17.46,3.69,31.3,13.42,42.51,26.82,5.78,6.92,10.51,14.75,15.49,22.31,5.72,8.69,7,18.34,5.63,28.51a70.89,70.89,0,0,1-7.86,24.57c-3.85,7.08-10,11.67-16.45,16.07-4.47,3.07-8.83,6.2-12.09,10.68a8,8,0,0,1-7.15,3.41c-4.6-.26-8,1.37-10.1,5.71a7.12,7.12,0,0,1-7.5,4.28c-22.56-1.58-45.11.47-67.66.21-16.35-.19-32.66-.54-48.59-4.78-13.13-3.49-25-9.25-33.77-20.06-5.06-6.23-9.06-13.13-10.07-21.16-.69-5.49-.25-11.13-.22-16.7C33.93,131.74,34.16,129.08,34.29,126.65Zm31,46.27c5.45-9.71,14.12-15.91,23-21.8,11.52-7.61,23.16-15,34.75-22.54l13.47-8.75c-4.76-6.5-8.72-13.21-13.55-19.28l-.62.37-.33,3.49a9.05,9.05,0,0,1-4.75-5.82c-2-6.65-5.51-12.44-9.48-18-2.27-3.18-4.5-6.4-7-9.45-6-7.46-12.69-14.22-22-17.49C75.57,52.51,72,52.1,68.33,51.29v10.4C74.08,64.22,75,65.6,74.78,72c-.13,4.49-.39,9-.47,13.47-.21,11.39-.05,22.81-.62,34.18a37.33,37.33,0,0,1-6.16,18.52c-1.34,2.06-3.08,3.32-5.62,2.81a4.71,4.71,0,0,1-4.11-4.69,37,37,0,0,1,.73-8.36c1.28-6.09,3.22-12,4.22-18.17,1.76-10.74,1-21.59.74-32.41a4.53,4.53,0,0,0-1.94-3.91c-1.26-1-1.94-2.77-2.74-4.27A17,17,0,0,1,58,66c-.89,1.29-1.39,1.89-1.76,2.56a72.89,72.89,0,0,0-8.43,25.19c-1.87,13-1.62,26.08-1.54,39.15A101.14,101.14,0,0,0,47.37,148C49.13,159.18,55.3,167.35,65.29,172.93Zm154.8-7.86a41.93,41.93,0,0,0,16.15-14.65c9.5-14.66,11-29.57.84-44.62-2.32-3.45-4.78-6.81-7.26-10.14-6.15-8.24-12.69-16.2-21.73-21.42-3.9-2.25-8.34-3.61-12.61-5.18a3,3,0,0,0-2.61.85c-2.78,3.59-5.33,7.36-8,11-3.66,4.93-7.84,9.53-11,14.76-4.58,7.6-8.4,15.67-12.66,23.47a8.21,8.21,0,0,1-3.29,3.56c-1.22.55-3-.08-4.89-.22,3.44,9.88,11.77,15.58,19.2,22.18a58.42,58.42,0,0,0-.67-9.92,44.58,44.58,0,0,1,.35-19.06,17.9,17.9,0,0,1,2.05-4.78c1-1.68,2.61-2,4.3-.81,2.25,1.53,3.76,3.45,3.61,6.39a63.83,63.83,0,0,0-.13,9.18c.53,5.45,1.67,10.85,2.13,16.31.61,7.24-.84,9.32-7.92,12.33,3.7,6.19,7.18,12.43,11.08,18.4,3.24,5,7.28,5.95,12.82,3.77,1.47-.58,2.85-1.35,4.33-1.92,3.11-1.19,4.4-3.59,4.71-6.73.41-4.22.73-8.46,1.29-12.66,2-14.6,3.81-29.19,3-44a19.82,19.82,0,0,1,1.89-8.58c1.05-2.45,3.64-2.69,6-1.32a6.85,6.85,0,0,1,3.3,6.6c-.5,13.21-1,26.43-1.82,39.62C222.05,153.18,220.93,158.84,220.09,165.06Zm-38.82,20.1c-10.57-20.15-22.79-38.39-38.93-53.83l-.23,1.92c-2.65.84-5.28,1.24-7.49,2.43-7.16,3.87-14.63,7.4-21.14,12.2-12,8.88-23.46,18.59-35.16,27.93-1.76,1.41-1.12,2.18.52,3a55.52,55.52,0,0,0,24.78,6c19,.28,38,.27,56.94.36C167.38,185.19,174.2,185.16,181.26,185.16Zm-57-102.08c.22-3.29.33-6,.59-8.76a70.4,70.4,0,0,1,1.06-8.4,5.45,5.45,0,0,1,4.86-4.42c2.57-.32,4,1.44,4.89,3.52a18,18,0,0,1-.56,15.69c-1.91,3.87-5.11,5.72-10.23,5,4.43,4.41,8.28,8.29,12.2,12.09a6,6,0,0,1,2.15,4.68c0,4.82,3.24,7.43,7.78,5.93,3.2-1.06,6.77-2.66,8.82-5.14a93.4,93.4,0,0,0,9.47-14.83,54.29,54.29,0,0,1,9.53-13.33,45.85,45.85,0,0,0,4.49-5c1.22-1.59,2.16-3.4,3.41-5.41-2.14-.57-3.71-1.08-5.33-1.41-6.09-1.27-12.28-2.18-18.27-3.79-14-3.78-28-8-42.63-8.92A63.09,63.09,0,0,0,99,51.84C105.64,63.78,114.14,73.75,124.24,83.09Z"/><path d="M88.44,107.23c.51-4.18,1-9.73,1.94-15.2.68-3.89,2.6-5.32,5.59-5.19s4.76,1.93,5.42,5.76a69.63,69.63,0,0,1-.2,24.07,16.28,16.28,0,0,1-1.14,3.55,5.54,5.54,0,0,1-10.71-1.41C89,115.44,88.79,112,88.44,107.23Z"/><path d="M150,163.35c-.66,4.18-1,7.57-1.76,10.89-.54,2.5-2,4.42-4.85,4.63-3,.22-4.21-2-5.13-4.26a32,32,0,0,1-1.81-14.49,43.68,43.68,0,0,1,1.43-7.82,4.79,4.79,0,0,1,4.62-3.58,4.22,4.22,0,0,1,4.63,3.05C148.35,155.77,149.16,159.91,150,163.35Z"/><path d="M122.44,167.5c-.6,2.65-1,4.86-1.63,7a5,5,0,0,1-4.71,3.5c-2.31.2-3.8-1.08-4.69-3a20.35,20.35,0,0,1-.66-15.75,5.1,5.1,0,0,1,4.73-3.49,4.4,4.4,0,0,1,4.76,3.25C121.21,161.84,121.78,164.85,122.44,167.5Z"/><path d="M162.33,78.56c-.74,2.82-1.33,5.83-2.35,8.7a5.23,5.23,0,0,1-5.58,3.69c-2.72-.11-3.69-2.09-4.36-4.13a19.93,19.93,0,0,1,.54-14.38,8.82,8.82,0,0,1,2.7-3.48c3.48-2.6,6.91-1.45,8.06,2.72A54.31,54.31,0,0,1,162.33,78.56Z"/></g></g></svg>