<svg xmlns="http://www.w3.org/2000/svg" viewBox="0 0 259.5 344.42"><title>资源 5</title><g id="图层_2" data-name="图层 2"><g id="图层_1-2" data-name="图层 1"><path d="M231.61,23c-.21,6.52-.3,13-.67,19.47-.66,11.71-1.25,23.44-2.32,35.12q-2,21.37-4.71,42.66c-2,15.75-4.45,31.45-6.68,47.18-1.94,13.67-3.8,27.35-5.76,41-2.92,20.27-6.14,40.47-14.59,59.38-3.58,8-7.91,15.63-13.84,22.15a66,66,0,0,1-8.81,7.67c-11.62,8.91-23.22,17.84-35,26.5-7.71,5.66-15.72,10.91-23.66,16.25a22.29,22.29,0,0,1-19.76,2.91,50.33,50.33,0,0,1-22.52-13.76c-2.13-2.23-4-4.67-6.21-6.84A128.94,128.94,0,0,0,56.77,313a44.59,44.59,0,0,1-9.29-10C40,291.83,32.11,280.87,24.73,269.6c-8.82-13.45-16.94-27.3-21.42-42.94a86.43,86.43,0,0,1-3.2-28.17c.76-15.21,2.35-30.38,3.1-45.59.51-10.39.54-20.83.19-31.23C2.72,101.23,4.79,80.89,5.14,60.5c.22-13-.25-26-.74-39-.16-4.28-1.52-8.49-2.07-12.77C1.52,2.5,5.25-1,11.48.26,18.8,1.75,26,3.84,33.35,5.16c13,2.33,26,5,39.16,6.15,12.65,1.07,25.45.35,38.18.37,13.58,0,27.15-.14,40.73.06,22.16.32,44.31.84,66.45-.51,7.05-.43,14.15,0,21.21-.31,2.86-.12,5.69-1.12,8.54-1.66A36.12,36.12,0,0,1,253,8.5c3.46-.11,5.57,1.25,6.28,3.76a6.53,6.53,0,0,1-3.68,7.46,48.72,48.72,0,0,1-11.21,3.18C240.28,23.44,236,23,231.61,23Zm-153,0a20.67,20.67,0,0,0-3.08-.59c-3.66-.16-7.4.23-11-.41-9.4-1.69-18.73-3.82-28.09-5.76a107.33,107.33,0,0,0-11-2.14c-5.83-.58-8.69,1.57-9.55,7.36a72.09,72.09,0,0,0-.39,11.45c.17,14.07.63,28.13.63,42.2,0,16.57-.62,33.15-.52,49.72.08,12.83.21,25.62-1.07,38.43-1.29,13-2.12,26.05-2.52,39.1-.38,12.28,2.25,24,9.13,34.48,3.41,5.21,6.34,10.74,9.4,16.17,8,14.2,15.92,28.49,25.78,41.53A91.43,91.43,0,0,0,65.18,304c3.82,3.79,7.88,7.35,11.71,11.14,2.54,2.52,4.76,5.35,7.28,7.89a30.45,30.45,0,0,0,11.55,7.69c5.84,2,11.42,2,16.45-2.18,2-1.69,4-3.48,6.19-5,5.23-3.52,10.79-6.59,15.82-10.38,11.57-8.72,22.94-17.7,34.29-26.69a47.74,47.74,0,0,0,6.92-6.82c7.07-8.48,11.45-18.41,14.05-29,5-20.48,10-41,14.17-61.67,2.48-12.36,3.49-25,4.87-37.59,1.12-10.18,1.64-20.42,2.72-30.61,1.62-15.31,3.69-30.57,5.2-45.89,1.28-13,2.11-26.05,3-39.09.28-4.1,0-8.24,0-12.23H99.53c.37.71.8.92,1.23.93,13.3.27,26.27,2.93,39.3,5.24,9.49,1.68,19,3.3,28.61,4.26,7.35.73,14.83.12,22.22.6A87,87,0,0,1,205.59,37c3.63.88,5.72,3.75,5.9,7.53s0,7.8,0,11.7a394.06,394.06,0,0,1-6.53,66.8c-3.36,18.16-6.64,36.35-10.6,54.38-6,27.09-14.56,53.42-24.53,79.29-4.46,11.56-10,22.53-18.63,31.64-6.53,6.91-13.73,13-23.22,15.31a165.48,165.48,0,0,1-17.23,2.76c-6.53.85-13.35.14-19,4.69-2.07,1.66-4.57.93-6.38-.85a50,50,0,0,1-6.49-7.23c-13-19.18-26.13-38.3-38.73-57.75a154.71,154.71,0,0,1-17.57-37.67c-5.3-16.75-4.51-33.85-3.33-51,.9-13.21,1.42-26.44,2.32-39.65.86-12.53,1.37-25.14,3.24-37.54C26.08,70.69,27.35,62,27,53.18c-.2-4.74-.42-9.49-.49-14.24-.09-7.39,2.43-9.63,9.74-8.84.58.06,1.15.23,1.73.25a24.82,24.82,0,0,0,4.73,0C54.71,28.37,66.23,23.81,78.6,23Zm29.74,172.33a13,13,0,0,0,1.85.52c11.72,1.37,23.3,3.86,35.19,3.86,10.32,0,20.65.5,31,.78,1.15,0,2.27.27,2.65-1.43,3.79-17,8-34,11.37-51.09,2.54-12.8,4.16-25.78,6-38.71.55-3.89,1.05-7.92-1-11.91-6.73,4.78-14.32,5.14-22.06,5.11-19.49-.09-39-.06-58.48-.09h-2.54Zm-6.73-92.93c-22.9-.15-45.51,3.91-68.11-1-.09,1.06-.19,1.88-.22,2.69q-.54,14.73-1.05,29.47c-.6,17.23-1.16,34.47-1.83,51.7-.08,2,.58,2.52,2.43,2.79,5.35.77,10.64,1.86,16,2.68,12.87,2,25.56,5.55,38.8,4.26,3.28-.32,6.58-.34,10-.5ZM94,296.91c6.16-.51,11.53-.89,16.89-1.42,14.22-1.42,26.32-7,35.13-18.56a126.3,126.3,0,0,0,9.29-13.58c8.84-15.43,14.07-32.22,18-49.47.45-2-.25-2.53-2.51-2.3-3.72.38-7.45.82-11.18.87-12.22.18-24.13-2.55-36.15-4.2-5.58-.77-11.18-1.41-17.18-2.16ZM196.53,92.61c.38-.85.63-1.36.84-1.9,2.16-5.66,2.74-11.62,2.88-17.58.15-6.56-.2-13.13-.35-19.7-.09-4-2.19-6.35-6.5-7.23a20.9,20.9,0,0,0-5.18-.52c-9.52.48-18.89-.82-28.27-2.09-15-2-30.06-3.94-45.07-6.08-2.38-.34-2.8.22-2.79,2.44q.12,24.48,0,49c0,2.3.62,3,3,3,13.57-.1,27.15-.05,40.72-.05,1.08,0,2.17,0,3.25,0,1.44.05,1.77-.55,1.7-2-.37-7.47-.63-14.95-.85-22.42a8.94,8.94,0,0,1,.54-2.92c1.06-3.29,4.46-4.48,7.13-2.25a10.42,10.42,0,0,1,3,4.41c2.13,6.18,1.8,12.6,1.31,19-.15,1.94-.35,3.88-.55,6.14l8.85-1.25C185.69,89.77,191.31,88.28,196.53,92.61ZM33.2,91.84H70.42c4.75,0,4.94-.22,4.36-4.93,0-.16,0-.33-.08-.49C73.29,79.28,71.79,72.16,70.5,65c-.81-4.51-1.28-9.09.38-13.55.8-2.14,1.85-4.21,4.56-4.35,2-.1,4.13,1.89,5,4.57.16.47.27,1,.38,1.44,2.74,12,5.21,24,5.24,36.37,0,1.93.73,2.43,2.52,2.38,3.41-.1,6.84-.15,10.25,0,2.25.11,3-.51,3-2.91q-.15-25.5,0-51c0-2.14-.54-2.9-2.79-2.88-10.92.11-21.83,0-32.75.06a9.15,9.15,0,0,0-2.23.17c-8.27,2.11-16.52,4.26-24.78,6.37a2.56,2.56,0,0,0-2.23,3c.08,6.25.06,12.5-.11,18.75s-.19,12.79-1.83,19C34.36,85.39,33.9,88.41,33.2,91.84Zm-2,106.49,19.23,43.44.81-.23a3,3,0,0,0,.37-1.07c-.25-3.29-.46-6.59-.87-9.86-.48-3.85-1.52-7.68-1.6-11.53-.06-2.8.44-6.36,3.83-7.13s5.61,2,6.76,4.81c1.54,3.73,3.08,7.67,3.44,11.62.69,7.54,1.23,15.43-7.72,19.41l28.12,42.1,1-.36,11-84.18C73.54,208,52.73,202.66,31.23,198.33Z"/></g></g></svg>