<?xml version="1.0" encoding="UTF-8"?>
<svg width="654px" height="508px" viewBox="0 0 654 508" version="1.1" xmlns="http://www.w3.org/2000/svg" xmlns:xlink="http://www.w3.org/1999/xlink">
    <!-- Generator: Sketch 42 (36781) - http://www.bohemiancoding.com/sketch -->
    <title>cloud</title>
    <desc>Created with Sketch.</desc>
    <defs></defs>
    <g id="Page-1" stroke="none" stroke-width="1" fill="none" fill-rule="evenodd">
        <g id="cloud" fill-rule="nonzero" fill="#6A97C5">
            <path d="M402.9,63 C423.1,43.3 448.9,38 474.3,33.2 C491.2,30 508.2,35.2 523.6,43.6 C547,56.5 566.2,73.5 576.9,98.6 C583.6,114.1 587,130 583.1,146.9 C581.6,153.1 583.3,156.8 590.6,159.4 C603.6,164 617.1,169.3 628.3,177.2 C644.3,188.5 648.5,207.4 652.5,225.5 C657,246.1 650,265.2 642.5,283.6 C637.8,295.2 631.8,306.8 624.1,316.4 C615.8,326.9 602.9,331.9 590,335.8 C587.7,336.5 585.5,337.3 582.7,338.2 C585.7,345.9 588.7,353 591.2,360.4 C602.8,395.8 582.2,431.7 542.2,438.4 C528.8,440.6 515,442.2 501.5,441.6 C482.3,440.8 463.5,436.8 446.8,426 C439.4,421.2 431.8,416.7 423.9,411.8 C422.1,415.5 419.5,420.1 417.5,425 C407.4,449 387.5,457.9 365.9,460.1 C351.6,461.5 338.2,456.9 324.5,453.1 C313.7,450.1 303.3,447.3 294.1,440.7 C285.1,434.2 277.4,426.8 273.1,416.3 C272.4,414.5 270.7,413.1 269.3,411.2 C253.8,420 246.7,433.6 246.7,451.1 C246.7,458.9 246.3,466.7 247.2,474.3 C248.8,487.1 256.8,495.6 268.4,500.8 C264.8,509.2 257.7,507.1 252.5,506.2 C237.5,503.7 224.9,496 212.9,486.9 C195.5,473.7 183.2,456.8 174.8,436.9 C168.3,421.4 162.4,405.7 156.7,391.4 C140.5,392.7 122.8,394.3 105,395.4 C78.3,397.1 55.8,387.8 36,369.7 C18.4,353.6 9,333.8 4.9,310.9 C4,305.7 2.4,300.6 1.6,295.3 C-1.4,275.3 2.5,256.1 9.6,237.4 C14.5,224.6 20.3,212.3 30.8,203 C35.4,198.9 31.7,195.5 29.8,192.2 C23.5,181.4 20.6,168.8 21.6,156.3 C23.2,134.7 30.7,115 45.5,99 C62.5,80.6 80.9,64.2 104,52.9 C124.2,43 143.9,42.3 164.5,48.7 C176.8,52.5 189,56.8 201.7,61.1 C212.1,34 231,13.4 261.1,5.8 C276.4,1.9 291.7,-1 308.3,0.4 C325.1,1.8 341.5,6.4 356.6,14 C375.3,23.4 390.2,36.6 399.1,56 C399.9,58 401.1,59.8 402.9,63 Z M247.2,496.5 C243.7,489.4 239.6,484.1 238.6,478.3 C236.9,468.4 235.5,457.9 237,448.2 C239.5,432.3 242.9,416 259.8,407.8 C270.6,402.6 274.3,402.8 278.5,413.3 C286.4,433 304.7,440.3 321.9,447.8 C331.1,451.8 342.2,451.4 352.4,453.4 C376,458 404.8,441.3 412.1,418.7 C413.8,413.3 415.3,407.8 417.3,402.5 C419.6,396.4 422.1,396.5 426.8,400.7 C434.3,407.4 442,414.1 450.5,419.3 C469.2,430.9 490.3,435.8 511.9,434.7 C527.2,434 542.8,429.9 557.5,425.1 C577.9,418.3 590,392.9 586,372.4 C584,362.3 579.3,352.7 574.8,343.3 C569.8,332.6 569.7,331.8 581.6,329.2 C601,325 617.6,316.3 626.5,297.8 C638.7,272.4 650.3,246.7 641,217.2 C635.7,200.3 628.3,184.8 612.5,176.2 C602.7,170.9 591.3,168.3 580.4,165.7 C572.5,163.8 572.4,160 573.9,153.3 C579,131.4 574.4,111 563.4,91.7 C553.5,74.5 539.2,62.2 522.2,52.5 C509.4,45.2 495,41.4 480.4,41.4 C470.5,41.3 460.6,45.2 450.7,47.6 C434.5,51.4 419.7,59.5 407.8,71.2 C400.4,78.4 396.5,77.2 394.1,67.6 C393.8,66.6 393,65.7 392.7,64.7 C385.6,44.1 369.9,31.2 351.8,21.6 C335.9,13.2 319.1,6.5 300.1,9.4 C290.7,10.8 280.8,9.3 271.6,11.5 C246.7,17.3 226.8,30.2 216,54.6 C213.8,59.6 211.4,64.4 208.7,69.2 C205.6,74.8 201.9,78.4 195.4,72.6 C183.6,62 168.6,55.7 152.8,54.8 C141.1,54.1 128.4,52.9 117.8,56.6 C84,67.9 58.9,90.8 41.1,121.2 C31.5,137.7 28,156.1 33.2,174.8 C35.7,183.9 41.5,192.1 46.4,201.9 C41.5,206.3 35.7,210.5 31.4,215.9 C27.1,221.4 23.7,227.5 21.1,234 C9.3,262.5 5,291 17.5,321.2 C24.6,338.3 32.7,353.6 46.9,365.8 C62.9,379.8 83.5,387.6 104.8,387.8 C123.6,388 143.3,387.1 161.3,378.9 C166,376.8 169,378.1 168.8,384.1 C168.6,388.8 168.2,393.6 169.4,398.1 C174.5,418.3 181.5,437.7 194.1,454.7 C207.6,473.2 223.9,487.9 247.2,496.5 Z" id="Shape"></path>
        </g>
    </g>
</svg>