<svg xmlns="http://www.w3.org/2000/svg" viewBox="0 0 200.82 200.82"><defs><style>.cls-1{fill:none;stroke:#fff;stroke-miterlimit:10;stroke-width:14px;}.cls-2{fill:#fff;}</style></defs><title>icon-quora</title><g id="图层_2" data-name="图层 2"><g id="图层_1-2" data-name="图层 1"><rect class="cls-1" x="7" y="7" width="186.82" height="186.82" rx="93.41" ry="93.41" transform="translate(2.41 -2.36) rotate(1.36)"/><path class="cls-2" d="M145.54,95.59a50.15,50.15,0,0,1-12.48,33,48.78,48.78,0,0,1-10,8.68c-.76.5-.78.57-.31,1.36a15.21,15.21,0,0,0,6.26,5.75,51.61,51.61,0,0,0,4.93,2.12,1.18,1.18,0,0,1,.9,1.2q0,3.34,0,6.68a1,1,0,0,1-1,1.15c-2.21.19-4.42.56-6.63.54a20.06,20.06,0,0,1-17.35-9.24c-.51-.75-1-1.52-1.45-2.31a1,1,0,0,0-1.3-.53,45.32,45.32,0,0,1-11.31,1.24,48.67,48.67,0,0,1-19.38-4.39A49.08,49.08,0,0,1,53.5,119.34a50.68,50.68,0,0,1-5.68-18.1A50.11,50.11,0,0,1,57,66.2,48.63,48.63,0,0,1,75.24,50.88,47,47,0,0,1,92.71,46.1a47.53,47.53,0,0,1,35.93,12,48.59,48.59,0,0,1,16,28.1A46.19,46.19,0,0,1,145.54,95.59Zm-23.89-.53c0-4,.29-7.94-.4-11.89-1.29-7.44-4.33-14-10.09-19-5.6-4.89-12.07-6.7-19.35-4.94C86.2,60.6,81.9,64,78.53,68.58A34.09,34.09,0,0,0,72,88.81c-.05,3.3,0,6.61,0,9.91a77.75,77.75,0,0,0,.28,8c.9,7.8,3.87,14.65,9.68,20.12a21.28,21.28,0,0,0,16.75,6.06,30.67,30.67,0,0,0,3-.51c.54-.09.71-.35.36-.84s-.66-1-1-1.47c-2.6-3.33-5.79-5.75-10.08-6.45a.84.84,0,0,1-.76-1q0-4.09,0-8.18a.84.84,0,0,1,1-1c1.19,0,2.4,0,3.58.12a31.15,31.15,0,0,1,19.49,9.11c.59.58.71.61,1.12-.08,1.06-1.76,2.19-3.49,3.07-5.34a31.87,31.87,0,0,0,3.1-12.45C121.76,101.58,121.65,98.32,121.65,95.06Z"/></g></g></svg>