<?xml version="1.0" encoding="UTF-8"?>
<svg width="24px" height="18px" viewBox="0 0 24 18" version="1.1" xmlns="http://www.w3.org/2000/svg" xmlns:xlink="http://www.w3.org/1999/xlink">
    <!-- Generator: Sketch 42 (36781) - http://www.bohemiancoding.com/sketch -->
    <title>icon-mail</title>
    <desc>Created with Sketch.</desc>
    <defs></defs>
    <g id="Page-1" stroke="none" stroke-width="1" fill="none" fill-rule="evenodd" stroke-linecap="round">
        <g id="beer-dropdown" transform="translate(-33.000000, -1530.000000)" stroke="#FFFFFF">
            <g id="icon-mail" transform="translate(34.000000, 1530.000000)">
                <g>
                    <path d="M21.0803355,17.0091284 C21.8366785,16.39566 22,15.2424731 22,14.9450653 C22,14.5343964 21.7714087,3.34092482 21.3507372,2.02834378 C20.9300656,0.715762741 19.9741623,0.841966903 19.9741623,0.841966903 C19.9741623,0.841966903 5.97532518,0.677352779 2.84436491,0.677352779 C-0.286595366,0.677352779 0.00734555582,2.88982436 0.00734555582,2.88982436 C0.00734555582,2.88982436 0.730159775,9.03772867 0.730159775,13.7737059 C0.730159775,18.5096831 2.41734362,17.1965245 2.41734362,17.1965245 C2.41734362,17.1965245 18.1803555,17.3981046 19.9344764,17.3981046 C20.4182571,17.3981046 20.7922992,17.2427541 21.0803355,17.0091284 L21.1173835,17.0506821 L21.0803355,17.0091284 Z" id="Path-9"></path>
                    <path d="M0.75862069,1.86956153 L10.0173629,10.8167723 C10.0173629,10.8167723 11.1304227,11.6932703 11.9826132,10.7468835 C12.8348038,9.80049672 20.1915286,1.49008265 20.1915286,1.49008265" id="Path-10"></path>
                    <path d="M7.2703875,8.80465153 L2.5,16.5" id="Path-11"></path>
                    <path d="M13.6551724,8.80465153 L21.2635064,17.0700133" id="Path-12"></path>
                </g>
            </g>
        </g>
    </g>
</svg>