<svg xmlns="http://www.w3.org/2000/svg" viewBox="0 0 200.82 200.82"><defs><style>.cls-1{fill:none;stroke:#fff;stroke-miterlimit:10;stroke-width:14px;}.cls-2{fill:#fff;}</style></defs><title>icon-ins</title><g id="图层_2" data-name="图层 2"><g id="图层_1-2" data-name="图层 1"><rect class="cls-1" x="7" y="7" width="186.82" height="186.82" rx="93.41" ry="93.41" transform="translate(2.41 -2.36) rotate(1.36)"/><path class="cls-2" d="M98.63,158.2H62.08c-7.83,0-13.38-5.95-13.39-14.37q0-39.63,0-79.27c0-6.46,3.34-11.69,8.81-13.62a12.87,12.87,0,0,1,4.21-.68q36.94-.06,73.88,0c7.46,0,13,6,13,14.06q0,39.92,0,79.83c0,8-5.63,14-13,14Q117.1,158.23,98.63,158.2ZM128.68,96c3,14.21-.24,26.14-11,34.82-10.41,8.41-22.13,9.62-33.55,3C70.33,125.71,65.32,112.69,68.78,96H59.84v1.6q0,21.44,0,42.88c0,3.9,1.32,5.31,5,5.32h67.52c3.56,0,5-1.5,5-5.34q0-21.44,0-42.88V96Zm-9.88,8c0-11.69-8.83-21-20-21S78.7,92.26,78.66,103.91,87.55,125,98.63,125C109.86,125,118.78,115.77,118.8,104Zm8.4-41.74c-1.91,0-3.82,0-5.72,0A4.41,4.41,0,0,0,117,66.8q-.15,6.11,0,12.23a4.29,4.29,0,0,0,4.18,4.47q5.92.13,11.84,0a4.24,4.24,0,0,0,4.15-4.34q.17-6.25,0-12.51a4.36,4.36,0,0,0-4.29-4.36C131,62.25,129.1,62.29,127.2,62.28Z"/></g></g></svg>