<svg xmlns="http://www.w3.org/2000/svg" viewBox="0 0 223.48 329.54"><title>资源 4</title><g id="图层_2" data-name="图层 2"><g id="图层_1-2" data-name="图层 1"><path d="M2,96.35Q2,62.11,2,27.86C2,21.53,1.83,15.27.38,9-1,3,1.55,0,7.85,0,11.41,0,15,.85,18.53.89c15.23.19,30.48.82,45.68.19,21.57-.89,42.88,0,64.08,4.45a221.78,221.78,0,0,0,29.39,4c8.36.62,16.81,0,25.22-.14,9.9-.11,19.8-.23,29.71-.3a23.73,23.73,0,0,1,4.23.35c4.34.76,6.7,3.6,6.66,8.59-.07,8.74-.45,17.48-.57,26.22-.19,13.49,0,27-.49,40.48-.32,8.8-1.45,17.57-2.45,26.33-.9,7.85-2.08,15.6-1.13,23.6a23.61,23.61,0,0,1-1.77,10.9c-3.49,8.92-4.77,18.34-7,27.53-6.63,27.08-16.12,53-31,76.73-8.95,14.24-19.6,26.89-33.5,36.6C134.76,294,125.34,303,116,312.16A143.87,143.87,0,0,1,99.3,326c-8,5.69-12.09,4.55-16.72-4.14-4.94-9.26-11.67-17.2-18.07-25.39a240.76,240.76,0,0,1-25.72-40.32c-6.3-12.55-13.6-24.6-20.36-36.93S5.33,194.4,3,180.47c-1.34-8-1.32-16.25-1.4-24.39-.18-19.91-.06-39.82-.06-59.73ZM92.1,314.81c2.71-1.61,5.37-2.75,7.49-4.54,5-4.18,9.64-8.69,14.47-13,5.58-5,10.73-10.63,16.9-14.75,21.55-14.4,36.12-34.41,47.58-57.1,13-25.8,20.77-53.27,25.44-81.67,1.74-10.59,2.38-21.41,4.74-31.85,3.51-15.53,4-31.13,3.62-46.91-.32-13.74-.23-27.48-.32-41.22,0-1.07,0-2.13,0-3.29-.69,0-1.18,0-1.66.09-6,.63-11.9,1.56-17.87,1.85-24.09,1.16-47.67-3.31-71.36-6.7-9.79-1.4-19.63-2.69-29.49-3.13-9.46-.42-19,.53-28.46.49-15.91-.07-31.82-.45-47.73-.69-.79,0-1.58,0-2.51,0,0,8.37,0,16.37,0,24.36Q12.8,84.36,12.62,132c0,7.74-.53,15.48-.73,23.23a82.13,82.13,0,0,0,4.43,29.71,283.88,283.88,0,0,0,18.17,40.76,487.72,487.72,0,0,0,33.57,54C76.29,291,86.12,301.28,92.1,314.81Z"/><path d="M84.21,256.22c5.55,1.29,7.81,4,7.91,9.49A23.42,23.42,0,0,1,85.53,283c-3.94,4.09-8.64,3.61-11.26-1.41a21.94,21.94,0,0,1-2.62-9.21c-.16-6.3.76-12.62.72-18.93-.05-8.56-.75-17.11-.88-25.67-.2-13.48-.44-27-.14-40.45.52-23.39,2.4-46.75,1.16-70.17-.78-14.8-1.57-29.59-2.56-44.38-.33-5-1.56-9.85-1.88-14.8-.23-3.69,2.85-6,6.44-5.49A5.42,5.42,0,0,1,79,56.71a73.81,73.81,0,0,1,2.48,12.66c.76,9.87,1,19.78,1.58,29.67.5,9.06,1.32,18.11,1.59,27.17.46,15.06.91,30.14.79,45.2-.21,27.9-.84,55.8-1.29,83.7C84.12,255.44,84.18,255.77,84.21,256.22Z"/><path d="M130.58,171.49c-1.13,15.35-2.09,30.72-3.43,46-1.23,14.08-3,28.12-4.27,42.2a110.42,110.42,0,0,0,.13,14.2c.17,4.15-.87,6.36-3.81,7.22-2.74.8-5.39-.05-6.56-2.64a15.44,15.44,0,0,1-1.58-6.44c.18-7.48.41-15,1.24-22.41,1.14-10.23,3.46-20.36,4.14-30.61,1.11-16.68,1.81-33.43,1.73-50.15-.07-15-1.34-29.93-2.23-44.89-.47-7.88-1.53-15.73-1.78-23.61a29.07,29.07,0,0,1,1.91-9.94c1.32-3.9,4.43-6.15,8.52-6.86,2.42-.42,4.76-.07,6.33,2s1.35,4.37.18,6.6a7.09,7.09,0,0,1-.89,1.5c-4.62,5.09-4.84,11.25-4,17.51C129,131.2,130.06,151.28,130.58,171.49Z"/><path d="M43.89,82.75c0,14.07.14,28.15-.06,42.22-.09,6.23-1.11,12.45-1.22,18.68-.09,5.39.62,10.79.78,16.19A67.74,67.74,0,0,1,43,169a8.83,8.83,0,0,1-1.55,3.89c-2.61,3.78-7.86,3.38-9.23-1a41,41,0,0,1-1.7-11.5c-.44-25.64-.86-51.28-.89-76.92,0-9.47,1.17-18.93,1.58-28.41.16-3.8-.37-7.63-.42-11.45a98.25,98.25,0,0,1,.28-11.18,7.89,7.89,0,0,1,2.23-4.31c3.21-3.27,7.63-2.37,8.61,2a73,73,0,0,1,1.56,14.56c.2,12.65.07,25.31.07,38Z"/><path d="M158.17,153.18c5.23,3,6.38,8.52,2.81,13.33-3,4-8.44,4.15-10.74-.27a42.35,42.35,0,0,1-3.65-11.53c-1.93-10.07-.63-20.26-.57-30.4,0-5.49-.22-11-.58-16.46a12.79,12.79,0,0,0-1.56-4.68c-1.49-3-3.27-5.79-4.77-8.76-1.58-3.12-1.29-6.15.75-8.11,2.29-2.2,5-2,7.71-.91C152.77,87.47,154.85,92,156,97a77.09,77.09,0,0,1,1.63,22.29c-.51,8.45,0,17,.1,25.45C157.78,147.47,158,150.21,158.17,153.18Z"/><path d="M180.36,112.83c1.62-10.92-.43-21.51-2.55-32.15A80.88,80.88,0,0,1,176.6,67.3c-.08-2.82.44-5.69,3.35-7.33,3.43-1.93,6.09-1,7,2.85a62.5,62.5,0,0,1,1.46,9.09c1.22,13.24,2.52,26.49,3.39,39.75.38,5.75.62,11.44,2.66,16.89a5,5,0,0,1,.14.74c.92,4.42-.27,7.25-3.66,8.05-5,1.19-9-1.44-9.53-4.94-.75-4.74-1-9.56-1.34-14.35A41.73,41.73,0,0,1,180.36,112.83Z"/></g></g></svg>